<svg width="154" height="210" viewBox="0 0 154 210" fill="none" xmlns="http://www.w3.org/2000/svg">
<g clip-path="url(#clip0_343_60)">
<path d="M144.12 1.5293L144.44 126.382L1.32038 209.012L1.00098 84.1593L144.12 1.5293Z" fill="white" stroke="#333333"/>
<path d="M144.119 1.5293L144.439 126.382L1.3194 209.012L1 84.1593L144.119 1.5293Z" stroke="#333333"/>
<path d="M19.4052 77.8535C20.3563 77.3044 21.1329 77.747 21.136 78.8399C21.1391 79.9362 20.3676 81.2692 19.4164 81.8183C18.4623 82.3692 17.6857 81.93 17.6826 80.8337C17.6795 79.7408 18.4511 78.4044 19.4052 77.8535Z" fill="#DEE6FD" stroke="#DEE6FD"/>
<path d="M14.2964 84.2006C14.9712 83.0394 14.973 81.7811 14.3004 81.3902C13.6278 80.9993 12.5354 81.6238 11.8606 82.7851C11.1857 83.9463 11.1839 85.2046 11.8566 85.5955C12.5292 85.9863 13.6215 85.3619 14.2964 84.2006Z" fill="#DEE6FD" stroke="#DEE6FD"/>
<path d="M6.73814 85.1672C7.69224 84.6163 8.46885 85.0589 8.47196 86.1518C8.47506 87.2481 7.70348 88.5811 6.74938 89.1319C5.79827 89.681 5.02167 89.2419 5.01856 88.1456C5.01547 87.0527 5.78703 85.7163 6.73814 85.1672Z" fill="#DEE6FD" stroke="#DEE6FD"/>
<path d="M144.12 1.5293L144.44 126.382L1.32038 209.012L1.00098 84.1593L144.12 1.5293Z" fill="white" stroke="#333333"/>
<path d="M144.119 1.5293L144.439 126.382L1.3194 209.012L1 84.1593L144.119 1.5293Z" stroke="#333333"/>
<path d="M19.4052 77.8535C20.3563 77.3044 21.1329 77.747 21.136 78.8399C21.1391 79.9362 20.3676 81.2692 19.4164 81.8183C18.4623 82.3692 17.6857 81.93 17.6826 80.8337C17.6795 79.7408 18.4511 78.4044 19.4052 77.8535Z" fill="#DEE6FD" stroke="#DEE6FD"/>
<path d="M14.2964 84.2006C14.9712 83.0394 14.973 81.7811 14.3004 81.3902C13.6278 80.9993 12.5354 81.6238 11.8606 82.7851C11.1857 83.9463 11.1839 85.2046 11.8566 85.5955C12.5292 85.9863 13.6215 85.3619 14.2964 84.2006Z" fill="#DEE6FD" stroke="#DEE6FD"/>
<path d="M6.73814 85.1672C7.69224 84.6163 8.46885 85.0589 8.47196 86.1518C8.47506 87.2481 7.70348 88.5811 6.74938 89.1319C5.79827 89.681 5.02167 89.2419 5.01856 88.1456C5.01547 87.0527 5.78703 85.7163 6.73814 85.1672Z" fill="#DEE6FD" stroke="#DEE6FD"/>
<g filter="url(#filter0_d_343_60)">
<path d="M125.727 55.8979L127.171 56.721L125.736 59.2061L124.292 58.3832L125.727 55.8979Z" fill="#FFBC47"/>
<path d="M124.292 58.3833L125.736 59.2062L124.302 61.6915L122.857 60.8684L124.292 58.3833Z" fill="#FFBC47"/>
<path d="M97.6464 87.3961C98.3824 86.9711 98.9836 87.31 98.986 88.1595C98.9884 89.0053 98.3911 90.0362 97.6551 90.4611C96.9191 90.8861 96.3178 90.5472 96.3154 89.7014C96.313 88.8519 96.9104 87.821 97.6464 87.3961Z" fill="#DDE6FF"/>
<path d="M147.682 70.8265C149.44 69.8112 150.868 70.6287 150.874 72.6457C150.88 74.6629 149.461 77.1237 147.702 78.1391L129.539 88.6258C127.78 89.6412 126.352 88.8238 126.347 86.8066C126.341 84.7895 127.76 82.3286 129.518 81.3132L147.682 70.8265Z" fill="#2563EB"/>
<path d="M122.857 60.8687L124.301 61.6917L122.866 64.1769L121.422 63.3539L122.857 60.8687Z" fill="#FFBC47"/>
<path d="M128.653 69.4952C129.389 69.0702 129.99 69.4091 129.993 70.2586C129.995 71.1045 129.398 72.1353 128.662 72.5602L102.473 87.6801C101.737 88.1051 101.136 87.7662 101.134 86.9204C101.131 86.0708 101.729 85.04 102.465 84.6151L128.653 69.4952Z" fill="#DEE6FD"/>
<path d="M90.6338 100.978L153.53 64.665L153.56 75.095C153.564 76.446 152.612 78.0935 151.437 78.7723L92.797 112.628C91.6213 113.307 90.6672 112.759 90.6634 111.408L90.6338 100.978ZM147.703 78.1391C149.462 77.1237 150.88 74.6629 150.874 72.6457C150.869 70.6285 149.441 69.8111 147.682 70.8265L129.519 81.3132C127.76 82.3285 126.341 84.7895 126.347 86.8065C126.353 88.8236 127.781 89.6411 129.539 88.6257L147.703 78.1391Z" fill="#DDE6FF"/>
<path d="M144.205 53.7615C144.944 53.3346 145.542 53.6791 145.544 54.5249C145.547 55.3707 144.953 56.4034 144.213 56.8303L102.454 80.94C101.718 81.365 101.117 81.0224 101.114 80.1765C101.112 79.3308 101.709 78.2962 102.445 77.8712L144.205 53.7615Z" fill="#DEE6FD"/>
<path d="M118.952 61.5904C119.691 61.1635 120.289 61.5043 120.292 62.35C120.294 63.1996 119.7 64.2286 118.961 64.6554L102.435 74.1963C101.699 74.6212 101.098 74.2824 101.096 73.4328C101.093 72.587 101.691 71.5562 102.427 71.1312L118.952 61.5904Z" fill="#DEE6FD"/>
<path d="M107.641 61.3659C108.377 60.941 108.975 61.2817 108.978 62.1312C108.98 62.9771 108.386 64.006 107.65 64.4309L97.5994 70.2337C96.8634 70.6587 96.2622 70.3198 96.2598 69.4739C96.2574 68.6244 96.8547 67.5936 97.5907 67.1686L107.641 61.3659Z" fill="#DDE6FF"/>
<path d="M151.26 16.8249C152.436 16.1461 153.394 16.688 153.397 18.039L153.427 28.4726L90.5306 64.7859L90.501 54.3522C90.4972 53.0012 91.4451 51.3593 92.6208 50.6805L151.26 16.8249ZM113.03 47.6124C114.118 46.9844 114.998 45.4607 114.994 44.2107C114.991 42.9608 114.105 42.4562 113.017 43.0842L98.1823 51.6492C97.0945 52.2772 96.2148 53.801 96.2183 55.0509C96.2219 56.3009 97.1074 56.8054 98.1951 56.1774L113.03 47.6124Z" fill="#DDE6FF"/>
<path d="M113.018 43.084C114.105 42.456 114.991 42.9606 114.995 44.2105C114.998 45.4605 114.118 46.9842 113.031 47.6123L98.1956 56.1772C97.1078 56.8053 96.2223 56.3007 96.2188 55.0507C96.2152 53.8008 97.095 52.277 98.1827 51.649L113.018 43.084Z" fill="white"/>
<path d="M97.6093 73.9128C98.3453 73.4878 98.9465 73.8267 98.9489 74.6724C98.9513 75.522 98.354 76.5529 97.618 76.9778C96.882 77.4028 96.2807 77.0639 96.2783 76.2143C96.2759 75.3685 96.8732 74.3377 97.6093 73.9128Z" fill="#DDE6FF"/>
<path d="M97.6278 80.6527C98.3639 80.2278 98.9651 80.5704 98.9675 81.4161C98.9699 82.262 98.3726 83.2966 97.6365 83.7215C96.9005 84.1465 96.2993 83.8039 96.2969 82.958C96.2945 82.1123 96.8918 81.0777 97.6278 80.6527Z" fill="#DDE6FF"/>
<path d="M90.5303 64.7859L153.427 28.4727L153.529 64.6652L90.6329 100.978L90.5303 64.7859ZM144.213 56.8305C144.952 56.4036 145.546 55.3709 145.544 54.5251C145.542 53.6793 144.944 53.3348 144.204 53.7617L102.445 77.8715C101.709 78.2964 101.112 79.331 101.114 80.1768C101.116 81.0226 101.718 81.3652 102.454 80.9403L144.213 56.8305ZM128.661 72.5604C129.397 72.1354 129.995 71.1046 129.992 70.2588C129.99 69.4093 129.389 69.0704 128.652 69.4954L102.464 84.6152C101.728 85.0402 101.131 86.071 101.133 86.9205C101.136 87.7664 101.737 88.1052 102.473 87.6803L128.661 72.5604ZM120.291 62.3502C120.288 61.5045 119.69 61.1637 118.951 61.5906L102.426 71.1315C101.69 71.5564 101.092 72.5872 101.095 73.433C101.097 74.2826 101.699 74.6214 102.435 74.1965L118.96 64.6556C119.699 64.2288 120.293 63.1998 120.291 62.3502ZM97.5899 67.1687C96.8538 67.5937 96.2565 68.6245 96.2589 69.474C96.2613 70.3199 96.8625 70.6587 97.5986 70.2338L107.649 64.431C108.385 64.0061 108.979 62.9771 108.977 62.1313C108.974 61.2818 108.377 60.941 107.641 61.366L97.5899 67.1687ZM122.857 60.8685L121.422 63.3538L122.867 64.1768L124.301 61.6916L125.736 59.2063L127.171 56.7211L125.727 55.8981L124.292 58.3834L122.857 60.8685ZM97.6368 83.7213C98.3728 83.2963 98.9701 82.2617 98.9677 81.4159C98.9653 80.5702 98.3641 80.2275 97.6281 80.6525C96.8921 81.0774 96.2947 82.112 96.2971 82.9578C96.2995 83.8036 96.9007 84.1462 97.6368 83.7213ZM97.6559 90.4613C98.3919 90.0363 98.9893 89.0055 98.9869 88.1596C98.9844 87.3102 98.3832 86.9713 97.6472 87.3963C96.9112 87.8212 96.3138 88.852 96.3162 89.7015C96.3186 90.5474 96.9198 90.8862 97.6559 90.4613ZM97.6177 76.9775C98.3537 76.5526 98.951 75.5217 98.9486 74.6721C98.9462 73.8264 98.345 73.4875 97.609 73.9125C96.8729 74.3374 96.2756 75.3683 96.278 76.214C96.2804 77.0636 96.8816 77.4025 97.6177 76.9775Z" fill="white"/>
<path d="M82.1476 135.329C83.9063 134.314 85.3342 135.132 85.3399 137.149C85.3456 139.166 83.927 141.627 82.1683 142.642L64.0048 153.129C62.2461 154.144 60.8182 153.327 60.8125 151.31C60.8068 149.292 62.2254 146.832 63.9841 145.816L82.1476 135.329Z" fill="#2563EB"/>
<path d="M65.5501 120.622L66.9943 121.445L65.5594 123.93L64.1152 123.107L65.5501 120.622Z" fill="#FFBC47"/>
<path d="M66.9847 118.136L68.4289 118.959L66.994 121.445L65.5498 120.621L66.9847 118.136Z" fill="#FFBC47"/>
<path d="M61.0257 123.233L62.4699 124.056L61.035 126.542L59.5908 125.719L61.0257 123.233Z" fill="#FFBC47"/>
<path d="M59.5823 122.411L61.0265 123.234L59.5917 125.719L58.1475 124.896L59.5823 122.411Z" fill="#FFBC47"/>
<path d="M61.0169 119.925L62.4611 120.748L61.0263 123.234L59.582 122.411L61.0169 119.925Z" fill="#FFBC47"/>
<path d="M63.1189 133.998C63.855 133.573 64.4562 133.912 64.4586 134.762C64.461 135.607 63.8637 136.638 63.1276 137.063L36.9393 152.183C36.2032 152.608 35.602 152.269 35.5996 151.423C35.5972 150.574 36.1945 149.543 36.9306 149.118L63.1189 133.998Z" fill="#DEE6FD"/>
<path d="M25.0996 165.478L87.996 129.165L88.0256 139.598C88.0294 140.949 87.0782 142.593 85.9025 143.272L27.2629 177.127C26.0871 177.806 25.133 177.263 25.1292 175.912L25.0996 165.478ZM82.1688 142.642C83.9275 141.627 85.3461 139.166 85.3404 137.149C85.3346 135.132 83.9067 134.314 82.148 135.33L63.9846 145.816C62.2259 146.832 60.8073 149.293 60.813 151.31C60.8187 153.327 62.2466 154.144 64.0053 153.129L82.1688 142.642Z" fill="#DDE6FF"/>
<path d="M78.6704 118.265C79.4097 117.838 80.0077 118.183 80.0101 119.028C80.0125 119.874 79.4184 120.907 78.6791 121.334L36.9197 145.443C36.1837 145.868 35.5825 145.526 35.5801 144.68C35.5777 143.834 36.175 142.8 36.911 142.375L78.6704 118.265Z" fill="#DEE6FD"/>
<path d="M53.4178 126.09C54.1571 125.663 54.755 126.007 54.7574 126.853C54.7598 127.699 54.1658 128.731 53.4265 129.158L36.9012 138.699C36.1651 139.124 35.5639 138.781 35.5615 137.936C35.5591 137.09 36.1564 136.055 36.8925 135.63L53.4178 126.09Z" fill="#DEE6FD"/>
<path d="M85.7263 81.3278C86.902 80.649 87.8593 81.1908 87.8632 82.5418L87.8927 92.9756L24.9964 129.289L24.9668 118.855C24.963 117.504 25.9109 115.862 27.0866 115.183L85.7263 81.3278ZM47.4959 112.115C48.5837 111.487 49.4634 109.964 49.4599 108.714C49.4564 107.464 48.5709 106.959 47.4831 107.587L32.6481 116.152C31.5603 116.78 30.6806 118.304 30.6841 119.554C30.6877 120.804 31.5732 121.308 32.661 120.68L47.4959 112.115Z" fill="#DDE6FF"/>
<path d="M47.4835 107.587C48.5713 106.959 49.4568 107.464 49.4604 108.714C49.4639 109.964 48.5841 111.487 47.4964 112.115L32.6614 120.68C31.5736 121.308 30.6881 120.804 30.6846 119.554C30.681 118.304 31.5608 116.78 32.6486 116.152L47.4835 107.587Z" fill="white"/>
<path d="M42.1072 125.869C42.8433 125.444 43.4412 125.785 43.4436 126.63C43.446 127.48 42.8519 128.509 42.1159 128.934L32.0653 134.737C31.3292 135.162 30.728 134.823 30.7256 133.973C30.7232 133.127 31.3205 132.097 32.0566 131.672L42.1072 125.869Z" fill="#DDE6FF"/>
<path d="M33.0225 140.494C33.5448 139.595 33.5462 138.621 33.0256 138.318C32.505 138.016 31.6595 138.499 31.1372 139.398C30.6148 140.297 30.6134 141.271 31.134 141.573C31.6547 141.876 32.5001 141.392 33.0225 140.494Z" fill="#DDE6FF"/>
<path d="M33.041 147.238C33.5634 146.339 33.5648 145.365 33.0442 145.063C32.5236 144.76 31.6781 145.243 31.1557 146.142C30.6334 147.041 30.632 148.015 31.1526 148.317C31.6732 148.62 32.5187 148.137 33.041 147.238Z" fill="#DDE6FF"/>
<path d="M32.1132 151.899C32.8492 151.474 33.4505 151.813 33.4529 152.662C33.4553 153.508 32.8579 154.539 32.1219 154.964C31.3858 155.389 30.7846 155.05 30.7822 154.204C30.7798 153.355 31.3772 152.324 32.1132 151.899Z" fill="#DDE6FF"/>
<path d="M65.5403 117.313L66.9845 118.137L65.5497 120.622L64.1055 119.799L65.5403 117.313Z" fill="#FFBC47"/>
<path d="M24.9971 129.289L87.8934 92.9756L87.996 129.164L25.0997 165.478L24.9971 129.289ZM78.6798 121.333C79.4192 120.906 80.0132 119.874 80.0108 119.028C80.0084 118.182 79.4105 117.838 78.6711 118.265L36.9118 142.374C36.1757 142.799 35.5784 143.834 35.5808 144.68C35.5832 145.525 36.1844 145.868 36.9205 145.443L78.6798 121.333ZM63.128 137.063C63.864 136.638 64.4613 135.607 64.4589 134.762C64.4565 133.912 63.8553 133.573 63.1193 133.998L36.9309 149.118C36.1948 149.543 35.5975 150.574 35.5999 151.423C35.6023 152.269 36.2035 152.608 36.9396 152.183L63.128 137.063ZM54.7576 126.853C54.7552 126.007 54.1572 125.663 53.4179 126.09L36.8927 135.631C36.1566 136.056 35.5593 137.09 35.5617 137.936C35.5641 138.782 36.1653 139.124 36.9014 138.699L53.4266 129.158C54.1659 128.732 54.76 127.699 54.7576 126.853ZM32.0567 131.672C31.3206 132.097 30.7233 133.127 30.7257 133.973C30.7281 134.823 31.3293 135.162 32.0654 134.737L42.116 128.934C42.852 128.509 43.4461 127.48 43.4437 126.63C43.4413 125.785 42.8434 125.444 42.1073 125.869L32.0567 131.672ZM59.5828 122.41L58.148 124.896L59.5922 125.719L61.0364 126.542L62.4713 124.057L61.0271 123.234L62.4619 120.748L61.0177 119.925L59.5828 122.41ZM64.1066 119.799L65.5508 120.622L64.116 123.107L65.5602 123.93L66.995 121.445L68.4299 118.96L66.9856 118.136L65.5414 117.313L64.1066 119.799ZM32.0845 141.48C32.8205 141.055 33.4179 140.021 33.4155 139.175C33.4131 138.329 32.8118 137.987 32.0758 138.412C31.3397 138.837 30.7424 139.871 30.7448 140.717C30.7472 141.563 31.3484 141.905 32.0845 141.48ZM32.1036 148.224C32.8397 147.799 33.437 146.765 33.4346 145.919C33.4322 145.073 32.8309 144.73 32.0949 145.155C31.3588 145.58 30.7615 146.615 30.7639 147.461C30.7663 148.306 31.3676 148.649 32.1036 148.224ZM32.1227 154.964C32.8588 154.539 33.4561 153.508 33.4537 152.663C33.4513 151.813 32.8501 151.474 32.114 151.899C31.3779 152.324 30.7806 153.355 30.7831 154.204C30.7854 155.05 31.3867 155.389 32.1227 154.964Z" fill="white"/>
<path d="M151.51 17.2542C152.007 16.9673 152.342 17.0017 152.521 17.1033C152.698 17.2042 152.896 17.4717 152.897 18.0404L153.059 75.0965C153.061 75.6627 152.859 76.3251 152.507 76.9337C152.155 77.5422 151.68 78.0503 151.186 78.3357L92.5464 112.191C92.0489 112.479 91.7148 112.444 91.5377 112.343C91.3618 112.243 91.1644 111.976 91.1627 111.407L91.001 54.3507C90.9994 53.7842 91.2006 53.1212 91.5517 52.5121C91.9028 51.9032 92.3767 51.395 92.8708 51.1098L151.51 17.2542Z" stroke="#333333"/>
<path d="M85.9762 81.7571C86.4732 81.4702 86.8083 81.5046 86.9866 81.6062C87.1638 81.7072 87.3616 81.9746 87.3632 82.5433L87.5249 139.6C87.5265 140.166 87.3248 140.828 86.9729 141.437C86.6211 142.045 86.1463 142.553 85.6519 142.839L27.0122 176.694C26.5147 176.981 26.1806 176.947 26.0035 176.846C25.8276 176.746 25.6302 176.479 25.6286 175.91L25.4668 118.854C25.4652 118.287 25.6664 117.624 26.0175 117.015C26.3686 116.406 26.8425 115.898 27.3366 115.613L85.9762 81.7571Z" stroke="#333333"/>
</g>
</g>
<defs>
<filter id="filter0_d_343_60" x="4.9668" y="16.5293" width="148.593" height="180.89" filterUnits="userSpaceOnUse" color-interpolation-filters="sRGB">
<feFlood flood-opacity="0" result="BackgroundImageFix"/>
<feColorMatrix in="SourceAlpha" type="matrix" values="0 0 0 0 0 0 0 0 0 0 0 0 0 0 0 0 0 0 127 0" result="hardAlpha"/>
<feOffset dx="-10" dy="10"/>
<feGaussianBlur stdDeviation="5"/>
<feComposite in2="hardAlpha" operator="out"/>
<feColorMatrix type="matrix" values="0 0 0 0 0.368627 0 0 0 0 0.388235 0 0 0 0 0.898039 0 0 0 0.05 0"/>
<feBlend mode="normal" in2="BackgroundImageFix" result="effect1_dropShadow_343_60"/>
<feBlend mode="normal" in="SourceGraphic" in2="effect1_dropShadow_343_60" result="shape"/>
</filter>
<clipPath id="clip0_343_60">
<rect width="154" height="210" fill="white"/>
</clipPath>
</defs>
</svg>
