<svg width="97" height="67" viewBox="0 0 97 67" fill="none" xmlns="http://www.w3.org/2000/svg">
<path d="M95.6083 28.3554L48.5353 55.7113L1.1543 28.3559L48.2273 1L95.6083 28.3554Z" fill="white"/>
<path d="M95.6096 28.3555L95.4559 38.2321L48.3828 65.588L48.5366 55.7113L95.6096 28.3555Z" fill="#DEE6FD"/>
<path d="M48.5347 55.7114L48.381 65.588L1 38.2326L1.15375 28.356L48.5347 55.7114Z" fill="#DEE6FD"/>
<path d="M48.2268 1L1.15381 28.3559L1 38.2325L48.381 65.5879L95.454 38.2321L95.6078 28.3554L48.2268 1Z" stroke="#333333" stroke-miterlimit="10"/>
<path d="M64.8879 18.7075L65.0041 38.2543L31.2584 38.2509L31.1484 18.7077L64.8879 18.7075Z" fill="#DEE6FD"/>
<path d="M52.9711 25.6333L53.0032 31.3286L43.1707 31.3287L43.1387 25.6333L52.9711 25.6333Z" fill="white"/>
</svg>
