<svg width="70" height="88" viewBox="0 0 70 88" fill="none" xmlns="http://www.w3.org/2000/svg">
<g clip-path="url(#clip0_343_187)">
<path d="M63.7113 28.2326L63.5861 72.5755L25.1387 50.2945L25.2639 5.95166L63.7113 28.2326Z" fill="white"/>
<path d="M63.8391 72.1394L63.9627 28.3764L68.4979 25.7309L68.3743 69.4939L63.8391 72.1394Z" fill="#DEE6FD" stroke="white" stroke-width="0.5"/>
<path d="M25.2656 5.95178L30.3017 3.01416L68.7491 25.2951L63.713 28.2328L25.2656 5.95178Z" fill="white"/>
<path d="M58.8814 31.0465L58.7561 75.3893L20.3105 53.1094L20.4358 8.7666L58.8814 31.0465Z" fill="#FFBC47"/>
<path d="M59.0071 74.9533L59.1307 31.1903L63.6659 28.5449L63.5423 72.3079L59.0071 74.9533Z" fill="#DEE6FD" stroke="white" stroke-width="0.5"/>
<path d="M20.4375 8.76671L25.4735 5.8291L63.9191 28.109L58.8831 31.0466L20.4375 8.76671Z" fill="#FFBC47"/>
<path d="M54.0533 33.8585L53.928 78.2034L15.4824 55.9235L15.6077 11.5786L54.0533 33.8585Z" fill="#DEE6FD"/>
<path d="M54.179 77.7674L54.3026 34.0023L58.8378 31.3569L58.7142 75.1219L54.179 77.7674Z" fill="#DEE6FD" stroke="white" stroke-width="0.5"/>
<path d="M15.6094 11.5787L20.6454 8.64111L59.091 30.921L54.055 33.8586L15.6094 11.5787Z" fill="white"/>
<path d="M49.229 36.6736L49.1037 81.0184L10.6562 58.7375L10.7815 14.3926L49.229 36.6736Z" fill="#DEE6FD"/>
<path d="M49.3567 80.5828L49.4803 36.8178L54.0155 34.1723L53.8919 77.9374L49.3567 80.5828Z" fill="#DEE6FD" stroke="white" stroke-width="0.5"/>
<path d="M10.7832 14.3927L15.8192 11.4551L54.2667 33.7361L49.2306 36.6737L10.7832 14.3927Z" fill="white"/>
<path d="M44.4159 26.0188L44.2599 83.856L5.8125 61.575L5.96849 3.73779L44.4159 26.0188Z" fill="white"/>
<path d="M44.5129 83.42L44.6673 26.1625L49.2026 23.517L49.0481 80.7745L44.5129 83.42Z" fill="#DEE6FD" stroke="white" stroke-width="0.5"/>
<path d="M5.9668 3.73791L11.0028 0.800293L49.4502 23.0813L44.4142 26.0189L5.9668 3.73791Z" fill="#2563EB"/>
<path d="M39.5727 42.302L39.4474 86.6448L1 64.3638L1.12524 20.021L39.5727 42.302Z" fill="#DEE6FD"/>
<path d="M39.7004 86.2087L39.824 42.4457L44.3592 39.8002L44.2356 83.5632L39.7004 86.2087Z" fill="#DEE6FD" stroke="white" stroke-width="0.5"/>
<path d="M1.12695 20.0211L6.16299 17.0835L44.6104 39.3645L39.5744 42.3021L1.12695 20.0211Z" fill="white"/>
<path d="M30.3001 3.01415L25.4742 5.82918L22.5877 7.51276L11.0049 0.800293L5.9689 3.73789L5.93255 17.2169L1.12524 20.0211L1 64.3639L39.4474 86.6449L44.2442 83.8468L44.2603 83.8561L49.2963 80.9185L49.2964 80.9062L53.9299 78.2034L58.7563 75.3882L58.7583 75.3894L63.5842 72.5744L63.5862 72.5756L68.6223 69.638L68.7475 25.2952L30.3001 3.01415Z" stroke="#333333" stroke-miterlimit="10"/>
</g>
<defs>
<clipPath id="clip0_343_187">
<rect width="70" height="88" fill="white"/>
</clipPath>
</defs>
</svg>
