<svg width="285" height="221" viewBox="0 0 285 221" fill="none" xmlns="http://www.w3.org/2000/svg">
<g clip-path="url(#clip0_343_155)">
<path d="M284.362 82.8313L237.058 55.5203V55.4755L189.754 28.1645V28.1196L142.373 0.76416L95.2999 28.1201L95.2992 28.3599L48.2269 55.7153L48.2262 55.9552L1.1538 83.3106L1 137.543L48.3041 164.854L48.304 164.899L95.6079 192.21L95.6078 192.255L142.989 219.61L190.062 192.254L190.063 192.014L237.135 164.659L237.136 164.419L284.208 137.064L284.362 82.8313Z" fill="#DEE6FD" stroke="#333333" stroke-miterlimit="10"/>
<path d="M189.171 28.0903L142.443 55.4168L95.4102 28.0907L142.138 0.76416L189.171 28.0903Z" fill="white" stroke="#DEE6FD" stroke-miterlimit="10"/>
<path d="M236.124 55.4169L189.396 82.7435L142.363 55.4174L189.091 28.0908L236.124 55.4169Z" fill="white" stroke="#DEE6FD" stroke-miterlimit="10"/>
<path d="M283.081 82.7431L236.353 110.07L189.32 82.7436L236.048 55.417L283.081 82.7431Z" fill="white" stroke="#DEE6FD" stroke-miterlimit="10"/>
<path d="M142.442 55.6562L95.7147 82.9828L48.6816 55.6566L95.409 28.3301L142.442 55.6562Z" fill="white" stroke="#DEE6FD" stroke-miterlimit="10"/>
<path d="M189.397 82.9824L142.67 110.309L95.6367 82.9828L142.364 55.6562L189.397 82.9824Z" fill="#DEE6FD" stroke="#333333" stroke-miterlimit="10"/>
<path d="M236.354 110.309L189.627 137.636L142.594 110.309L189.321 82.9829L236.354 110.309Z" fill="white" stroke="#DEE6FD" stroke-miterlimit="10"/>
<path d="M95.7155 83.2216L48.9881 110.548L1.95508 83.2221L48.6825 55.8955L95.7155 83.2216Z" fill="white" stroke="#DEE6FD" stroke-miterlimit="10"/>
<path d="M142.673 110.548L95.9452 137.875L48.9121 110.549L95.6395 83.2222L142.673 110.548Z" fill="white" stroke="#DEE6FD" stroke-miterlimit="10"/>
<path d="M189.626 137.875L142.898 165.202L95.8652 137.875L142.593 110.549L189.626 137.875Z" fill="#DEE6FD" stroke="#333333" stroke-miterlimit="10"/>
<path d="M189.751 73.5122L142.678 100.868L95.2969 73.5126L142.37 46.1567L189.751 73.5122Z" fill="white"/>
<path d="M189.752 73.5122L189.598 83.3889L142.525 110.745L142.679 100.868L189.752 73.5122Z" fill="#DEE6FD"/>
<path d="M142.677 100.868L142.524 110.745L95.1426 83.3893L95.2963 73.5127L142.677 100.868Z" fill="#DEE6FD"/>
<path d="M142.369 46.1567L95.2964 73.5126L95.1426 83.3892L142.524 110.745L189.597 83.3888L189.75 73.5122L142.369 46.1567Z" stroke="#333333" stroke-miterlimit="10"/>
<path d="M166.997 74.3647L143.217 88.1842L119.281 74.3649L143.061 60.5454L166.997 74.3647Z" fill="#2563EB"/>
<path d="M142.518 163.644V219.049" stroke="white"/>
<path d="M96 136.953V192.358" stroke="white"/>
<path d="M49 109.953V165.358" stroke="white"/>
<path d="M190 135.953V191.358" stroke="white"/>
<path d="M236 109.953V165.358" stroke="white"/>
<path d="M284.362 82.8313L237.058 55.5203V55.4755L189.754 28.1645V28.1196L142.373 0.76416L95.2999 28.1201L95.2992 28.3599L48.2269 55.7154L48.2262 55.9552L1.1538 83.3106L1 137.543L48.3041 164.854L48.304 164.899L95.6079 192.21L95.6078 192.255L142.989 219.61L190.063 192.014L237.135 164.659L284.208 137.064L284.362 82.8313Z" stroke="#333333" stroke-miterlimit="10"/>
<path d="M190.138 128.25L143.065 155.606L95.6836 128.25L142.757 100.895L190.138 128.25Z" fill="white"/>
<path d="M190.139 128.25L189.985 138.127L142.912 165.483L143.066 155.606L190.139 128.25Z" fill="#DEE6FD"/>
<path d="M143.064 155.605L142.91 165.482L95.5293 138.127L95.6831 128.25L143.064 155.605Z" fill="#DEE6FD"/>
<path d="M142.756 100.895L95.6831 128.25L95.5293 138.127L142.91 165.482L189.983 138.127L190.137 128.25L142.756 100.895Z" stroke="#333333" stroke-miterlimit="10"/>
<path d="M148.594 122.253L142.509 125.789L136.377 122.249L142.463 118.713L148.594 122.253Z" fill="#DEE6FD"/>
<path d="M148.563 132.353L142.471 135.893L136.346 132.356L142.437 128.816L148.563 132.353Z" fill="#DEE6FD"/>
<path d="M154.647 118.744L148.555 122.284L142.424 118.744L148.515 115.204L154.647 118.744Z" fill="#DEE6FD"/>
<path d="M154.598 135.831L148.507 139.371L142.375 135.831L148.467 132.291L154.598 135.831Z" fill="#DEE6FD"/>
<path d="M142.467 118.744L136.376 122.284L130.244 118.744L136.336 115.204L142.467 118.744Z" fill="#DEE6FD"/>
<path d="M142.583 135.831L136.491 139.371L130.359 135.831L136.451 132.291L142.583 135.831Z" fill="#DEE6FD"/>
</g>
<defs>
<clipPath id="clip0_343_155">
<rect width="285" height="221" fill="white"/>
</clipPath>
</defs>
</svg>
