<svg width="156" height="210" viewBox="0 0 156 210" fill="none" xmlns="http://www.w3.org/2000/svg">
<g clip-path="url(#clip0_343_4)">
<path d="M144.12 1.01172L144.44 125.864L1.32038 208.494L1.00098 83.6417L144.12 1.01172Z" fill="white" stroke="#333333"/>
<path d="M144.119 1.01172L144.439 125.864L1.3194 208.494L1 83.6417L144.119 1.01172Z" stroke="#333333"/>
<path d="M19.4052 77.336C20.3563 76.7868 21.1329 77.2294 21.136 78.3223C21.1391 79.4186 20.3676 80.7516 19.4164 81.3007C18.4623 81.8516 17.6857 81.4125 17.6826 80.3161C17.6795 79.2232 18.4511 77.8868 19.4052 77.336Z" fill="#DEE6FD" stroke="#DEE6FD"/>
<path d="M14.2964 83.683C14.9712 82.5218 14.973 81.2635 14.3004 80.8726C13.6278 80.4818 12.5354 81.1063 11.8606 82.2675C11.1857 83.4287 11.1839 84.687 11.8566 85.0779C12.5292 85.4688 13.6215 84.8443 14.2964 83.683Z" fill="#DEE6FD" stroke="#DEE6FD"/>
<path d="M6.73814 84.6496C7.69224 84.0987 8.46885 84.5413 8.47196 85.6342C8.47506 86.7305 7.70348 88.0635 6.74938 88.6143C5.79827 89.1635 5.02167 88.7243 5.01856 87.628C5.01547 86.5351 5.78703 85.1987 6.73814 84.6496Z" fill="#DEE6FD" stroke="#DEE6FD"/>
<g filter="url(#filter0_d_343_4)">
<path d="M102.154 113.284C103.339 112.6 104.305 113.151 104.309 114.516L104.31 114.923C104.314 116.289 103.354 117.951 102.169 118.636L90.4135 125.423C89.2251 126.109 88.2589 125.558 88.2551 124.193L88.2539 123.786C88.25 122.42 89.2099 120.758 90.3983 120.071L102.154 113.284Z" fill="#DEE6FD"/>
<path d="M102.199 128.509C103.384 127.825 104.35 128.376 104.354 129.738L104.355 130.145C104.359 131.51 103.399 133.173 102.214 133.857L90.4584 140.644C89.27 141.33 88.3039 140.78 88.3 139.414L88.2988 139.007C88.295 137.645 89.2548 135.983 90.4433 135.297L102.199 128.509Z" fill="#DEE6FD"/>
<path d="M109.172 104.292L154.88 77.9019L154.924 93.1235L109.215 119.513L109.172 104.292ZM150.716 88.1317L150.714 87.7246C150.711 86.359 149.744 85.8084 148.556 86.4945L140.282 91.2716C139.093 91.9577 138.134 93.6203 138.138 94.9859L138.139 95.393C138.143 96.7586 139.109 97.3092 140.297 96.623L148.571 91.846C149.76 91.1599 150.719 89.4973 150.716 88.1317Z" fill="white" stroke="#DEE6FD"/>
<path d="M148.556 86.4944C149.745 85.8083 150.711 86.3589 150.715 87.7245L150.716 88.1316C150.72 89.4972 149.76 91.1597 148.571 91.8459L140.297 96.6229C139.109 97.3091 138.143 96.7585 138.139 95.3929L138.138 94.9858C138.134 93.6202 139.094 91.9576 140.282 91.2714L148.556 86.4944Z" fill="#DEE6FD"/>
<path d="M148.599 101.72C149.788 101.034 150.754 101.585 150.758 102.946L150.759 103.354C150.763 104.719 149.803 106.382 148.614 107.068L140.34 111.845C139.152 112.531 138.186 111.98 138.182 110.615L138.181 110.208C138.177 108.846 139.137 107.183 140.325 106.497L148.599 101.72Z" fill="#DEE6FD"/>
<path d="M109.215 119.513L154.923 93.1235L154.967 108.345L109.258 134.735L109.215 119.513ZM150.759 103.353L150.757 102.946C150.754 101.584 149.787 101.034 148.599 101.72L140.325 106.497C139.136 107.183 138.177 108.846 138.18 110.208L138.182 110.615C138.185 111.98 139.152 112.531 140.34 111.845L148.614 107.068C149.803 106.382 150.762 104.719 150.759 103.353Z" fill="white" stroke="#DEE6FD"/>
<path d="M63.5098 145.901L109.215 119.513L109.258 134.735L63.5529 161.123L63.5098 145.901ZM104.355 130.145L104.353 129.738C104.35 128.376 103.383 127.825 102.198 128.509L90.4426 135.296C89.2541 135.983 88.2943 137.645 88.2981 139.007L88.2993 139.414C88.3032 140.78 89.2693 141.33 90.4577 140.644L102.213 133.857C103.399 133.173 104.358 131.51 104.355 130.145Z" fill="white" stroke="#DEE6FD"/>
<path d="M63.4229 115.458L109.128 89.0703L109.171 104.292L63.466 130.68L63.4229 115.458ZM104.268 99.7018L104.267 99.2947C104.263 97.9291 103.297 97.3785 102.111 98.0628L90.3556 104.85C89.1672 105.536 88.2073 107.199 88.2112 108.564L88.2124 108.971C88.2162 110.337 89.1824 110.888 90.3708 110.201L102.126 103.414C103.312 102.73 104.272 101.067 104.268 99.7018Z" fill="white" stroke="#DEE6FD"/>
<path d="M148.426 40.8299C149.615 40.1437 150.581 40.6943 150.585 42.0599L150.586 42.467C150.59 43.8326 149.63 45.4952 148.441 46.1813L140.167 50.9583C138.979 51.6445 138.013 51.0939 138.009 49.7283L138.008 49.3212C138.004 47.9556 138.964 46.2931 140.152 45.6069L148.426 40.8299Z" fill="#DEE6FD"/>
<path d="M148.514 71.2728C149.703 70.5866 150.669 71.1372 150.673 72.5028L150.674 72.9099C150.678 74.2755 149.718 75.9381 148.529 76.6242L140.255 81.4012C139.067 82.0874 138.101 81.5368 138.097 80.1712L138.096 79.7641C138.092 78.3985 139.052 76.7359 140.24 76.0498L148.514 71.2728Z" fill="#DEE6FD"/>
<path d="M109.128 89.07L154.836 62.6802L154.88 77.9018L109.171 104.292L109.128 89.07ZM150.672 72.91L150.67 72.5029C150.667 71.1373 149.7 70.5867 148.512 71.2729L140.238 76.0499C139.05 76.736 138.09 78.3986 138.094 79.7642L138.095 80.1713C138.099 81.5369 139.065 82.0875 140.253 81.4013L148.527 76.6243C149.716 75.9382 150.676 74.2756 150.672 72.91Z" fill="white" stroke="#DEE6FD"/>
<path d="M109.085 73.8483L154.793 47.4585L154.837 62.6801L109.128 89.0699L109.085 73.8483ZM150.629 57.6883L150.628 57.2812C150.624 55.9156 149.657 55.365 148.469 56.0512L140.195 60.8282C139.007 61.5144 138.047 63.1769 138.051 64.5425L138.052 64.9496C138.056 66.3152 139.022 66.8658 140.21 66.1797L148.484 61.4026C149.673 60.7165 150.633 59.0539 150.629 57.6883Z" fill="white" stroke="#DEE6FD"/>
<path d="M148.469 56.0516C149.658 55.3654 150.624 55.916 150.628 57.2816L150.629 57.6887C150.633 59.0543 149.673 60.7169 148.484 61.403L140.21 66.18C139.022 66.8662 138.056 66.3156 138.052 64.95L138.051 64.5429C138.047 63.1773 139.007 61.5147 140.195 60.8286L148.469 56.0516Z" fill="#DEE6FD"/>
<path d="M109.042 58.6232L154.751 32.2334L154.794 47.4587L109.085 73.8485L109.042 58.6232ZM150.586 42.4669L150.585 42.0598C150.581 40.6942 149.615 40.1437 148.426 40.8298L140.152 45.6068C138.964 46.293 138.004 47.9555 138.008 49.3211L138.009 49.7282C138.013 51.0938 138.979 51.6444 140.167 50.9582L148.441 46.1812C149.63 45.4951 150.59 43.8325 150.586 42.4669Z" fill="white" stroke="#DEE6FD"/>
<path d="M102.112 98.0626C103.297 97.3783 104.263 97.9289 104.267 99.2945L104.268 99.7016C104.272 101.067 103.312 102.73 102.127 103.414L90.3715 110.201C89.1831 110.887 88.217 110.337 88.2131 108.971L88.2119 108.564C88.2081 107.198 89.1679 105.536 90.3563 104.85L102.112 98.0626Z" fill="#DEE6FD"/>
<path d="M63.3799 100.237L109.085 73.8486L109.128 89.0702L63.423 115.458L63.3799 100.237ZM104.225 84.4801L104.224 84.073C104.22 82.7074 103.254 82.1568 102.068 82.8411L90.3127 89.6282C89.1242 90.3144 88.1644 91.9769 88.1682 93.3425L88.1694 93.7496C88.1733 95.1152 89.1394 95.6658 90.3278 94.9797L102.083 88.1925C103.269 87.5083 104.229 85.8457 104.225 84.4801Z" fill="white" stroke="#DEE6FD"/>
<path d="M102.069 82.8409C103.254 82.1566 104.22 82.7072 104.224 84.0728L104.225 84.4799C104.229 85.8455 103.269 87.5081 102.084 88.1923L90.3285 94.9795C89.1401 95.6656 88.174 95.115 88.1701 93.7494L88.169 93.3423C88.1651 91.9767 89.1249 90.3142 90.3134 89.628L102.069 82.8409Z" fill="#DEE6FD"/>
<path d="M63.3379 85.011L109.043 58.623L109.086 73.8484L63.3811 100.236L63.3379 85.011ZM104.183 69.2582L104.182 68.8511C104.178 67.4855 103.212 66.935 102.026 67.6192L90.2707 74.4064C89.0822 75.0925 88.1224 76.755 88.1263 78.1206L88.1274 78.5277C88.1313 79.8934 89.0974 80.4439 90.2858 79.7578L102.042 72.9706C103.227 72.2864 104.187 70.6238 104.183 69.2582Z" fill="white" stroke="#DEE6FD"/>
<path d="M101.982 52.3975C103.167 51.7132 104.133 52.2638 104.137 53.6295L104.139 54.0366C104.142 55.4021 103.183 57.0647 101.997 57.749L90.2416 64.5361C89.0532 65.2223 88.0871 64.6717 88.0832 63.3061L88.082 62.899C88.0782 61.5334 89.038 59.8708 90.2265 59.1847L101.982 52.3975Z" fill="white"/>
<path d="M102.026 67.6192C103.211 66.9349 104.177 67.4855 104.181 68.8511L104.182 69.2582C104.186 70.6238 103.226 72.2863 102.041 72.9706L90.2856 79.7578C89.0971 80.4439 88.131 79.8934 88.1271 78.5277L88.126 78.1206C88.1221 76.755 89.082 75.0925 90.2704 74.4064L102.026 67.6192Z" fill="#FFBC47"/>
<path d="M148.382 25.6082C149.571 24.9221 150.537 25.4726 150.541 26.8383L150.542 27.2454C150.546 28.6109 149.586 30.2735 148.398 30.9597L140.123 35.7367C138.935 36.4228 137.969 35.8722 137.965 34.5067L137.964 34.0996C137.96 32.7339 138.92 31.0714 140.108 30.3852L148.382 25.6082Z" fill="white"/>
<path d="M109 43.4015L154.709 17.0117L154.752 32.2334L109.043 58.6232L109 43.4015ZM150.544 27.2453L150.543 26.8382C150.539 25.4725 149.573 24.922 148.384 25.6081L140.11 30.3851C138.922 31.0713 137.962 32.7338 137.966 34.0995L137.967 34.5066C137.971 35.8722 138.937 36.4228 140.125 35.7366L148.399 30.9596C149.588 30.2734 150.548 28.6109 150.544 27.2453Z" fill="#DEE6FD" stroke="white"/>
<path d="M63.293 69.7893L108.998 43.4014L109.041 58.623L63.3361 85.011L63.293 69.7893ZM104.138 54.0366L104.137 53.6295C104.133 52.2638 103.167 51.7133 101.981 52.3976L90.2258 59.1847C89.0373 59.8708 88.0775 61.5334 88.0813 62.899L88.0825 63.3061C88.0864 64.6717 89.0525 65.2223 90.2409 64.5361L101.997 57.749C103.182 57.0647 104.142 55.4022 104.138 54.0366Z" fill="#DEE6FD" stroke="white"/>
<path d="M57.2881 123.941C58.4765 123.255 59.4426 123.806 59.4465 125.171L59.4477 125.578C59.4515 126.944 58.4917 128.607 57.3032 129.293L49.435 133.835C48.2466 134.522 47.2804 133.971 47.2766 132.605L47.2754 132.198C47.2715 130.833 48.2314 129.17 49.4198 128.484L57.2881 123.941Z" fill="#2563EB"/>
<path d="M63.4678 130.68L109.173 104.292L109.216 119.514L63.5109 145.902L63.4678 130.68ZM104.313 114.923L104.311 114.516C104.308 113.151 103.341 112.6 102.156 113.284L90.4006 120.072C89.2121 120.758 88.2523 122.42 88.2561 123.786L88.2573 124.193C88.2612 125.559 89.2273 126.109 90.4157 125.423L102.171 118.636C103.357 117.952 104.316 116.289 104.313 114.923Z" fill="white" stroke="#DEE6FD"/>
<path d="M37.1677 150.805C38.3561 150.119 39.3222 150.669 39.3261 152.035L39.3273 152.442C39.3311 153.808 38.3713 155.47 37.1828 156.156L29.3178 160.697C28.1294 161.383 27.1632 160.833 27.1594 159.467L27.1582 159.06C27.1543 157.695 28.1142 156.032 29.3027 155.346L37.1677 150.805Z" fill="#FFBC47"/>
<path d="M37.2087 166.03C38.3971 165.344 39.3633 165.895 39.3671 167.257L39.3683 167.664C39.3722 169.029 38.4123 170.692 37.2239 171.378L29.3588 175.919C28.1704 176.605 27.2043 176.054 27.2004 174.689L27.1992 174.282C27.1954 172.92 28.1552 171.257 29.3437 170.571L37.2087 166.03Z" fill="#DEE6FD"/>
<path d="M43.3447 157.544L63.5097 145.901L63.5528 161.123L43.3879 172.765L43.3447 157.544ZM59.5349 156.022L59.5338 155.614C59.5299 154.252 58.5638 153.702 57.3753 154.388L49.5071 158.931C48.3186 159.617 47.3588 161.279 47.3626 162.641L47.3638 163.049C47.3677 164.414 48.3338 164.965 49.5223 164.279L57.3905 159.736C58.5789 159.05 59.5388 157.387 59.5349 156.022Z" fill="white" stroke="#DEE6FD"/>
<path d="M57.375 154.388C58.5634 153.702 59.5296 154.253 59.5334 155.614L59.5346 156.022C59.5384 157.387 58.5786 159.05 57.3902 159.736L49.5219 164.279C48.3335 164.965 47.3673 164.414 47.3635 163.049L47.3623 162.641C47.3585 161.28 48.3183 159.617 49.5068 158.931L57.375 154.388Z" fill="#DEE6FD"/>
<path d="M57.332 139.163C58.5205 138.477 59.4866 139.027 59.4905 140.393L59.4916 140.8C59.4955 142.166 58.5356 143.828 57.3472 144.514L49.479 149.057C48.2905 149.743 47.3244 149.193 47.3205 147.827L47.3193 147.42C47.3155 146.054 48.2753 144.392 49.4638 143.706L57.332 139.163Z" fill="#DEE6FD"/>
<path d="M43.3008 142.322L63.4657 130.68L63.5089 145.901L43.3439 157.544L43.3008 142.322ZM59.491 140.8L59.4898 140.393C59.4859 139.027 58.5198 138.477 57.3314 139.163L49.4631 143.705C48.2747 144.392 47.3148 146.054 47.3187 147.42L47.3198 147.827C47.3237 149.192 48.2898 149.743 49.4783 149.057L57.3465 144.514C58.535 143.828 59.4948 142.165 59.491 140.8Z" fill="white" stroke="#DEE6FD"/>
<path d="M23.1816 169.184L43.3434 157.543L43.3865 172.765L23.2248 184.406L23.1816 169.184ZM39.3686 167.664L39.3674 167.257C39.3636 165.895 38.3974 165.344 37.209 166.03L29.344 170.571C28.1555 171.257 27.1957 172.92 27.1995 174.282L27.2007 174.689C27.2046 176.054 28.1707 176.605 29.3591 175.919L37.2242 171.378C38.4126 170.692 39.3725 169.029 39.3686 167.664Z" fill="white" stroke="#DEE6FD"/>
<path d="M23.0537 123.519L43.2154 111.879L43.2586 127.101L23.0969 138.741L23.0537 123.519ZM39.2407 121.999L39.2395 121.592C39.2356 120.226 38.2695 119.676 37.0811 120.362L29.216 124.903C28.0276 125.589 27.0677 127.251 27.0716 128.617L27.0728 129.024C27.0766 130.39 28.0428 130.94 29.2312 130.254L37.0962 125.713C38.2847 125.027 39.2445 123.365 39.2407 121.999Z" fill="white" stroke="#DEE6FD"/>
<path d="M43.2578 127.1L63.4228 115.458L63.4659 130.68L43.301 142.322L43.2578 127.1ZM59.448 125.578L59.4468 125.171C59.443 123.805 58.4768 123.255 57.2884 123.941L49.4202 128.484C48.2317 129.17 47.2719 130.832 47.2757 132.198L47.2769 132.605C47.2807 133.971 48.2469 134.521 49.4353 133.835L57.3036 129.292C58.492 128.606 59.4519 126.944 59.448 125.578Z" fill="white" stroke="#DEE6FD"/>
<path d="M43.2129 111.879L63.3778 100.236L63.421 115.458L43.256 127.1L43.2129 111.879ZM59.4031 110.356L59.4019 109.949C59.3981 108.584 58.4319 108.033 57.2435 108.719L49.3753 113.262C48.1868 113.948 47.2269 115.611 47.2308 116.976L47.232 117.383C47.2358 118.749 48.202 119.3 49.3904 118.613L57.2586 114.071C58.4471 113.385 59.4069 111.722 59.4031 110.356Z" fill="white" stroke="#DEE6FD"/>
<path d="M57.2451 108.72C58.4335 108.033 59.3997 108.584 59.4035 109.95L59.4047 110.357C59.4086 111.722 58.4487 113.385 57.2603 114.071L49.392 118.614C48.2036 119.3 47.2375 118.749 47.2336 117.384L47.2324 116.977C47.2286 115.611 48.1884 113.948 49.3769 113.262L57.2451 108.72Z" fill="#DEE6FD"/>
<path d="M23.1396 153.962L43.3014 142.322L43.3445 157.543L23.1828 169.184L23.1396 153.962ZM39.3266 152.442L39.3254 152.035C39.3216 150.669 38.3554 150.119 37.167 150.805L29.302 155.346C28.1135 156.032 27.1537 157.694 27.1575 159.06L27.1587 159.467C27.1626 160.833 28.1287 161.383 29.3171 160.697L37.1822 156.156C38.3706 155.47 39.3305 153.808 39.3266 152.442Z" fill="white" stroke="#DEE6FD"/>
<path d="M37.1237 135.583C38.3122 134.897 39.2783 135.448 39.2822 136.813L39.2833 137.22C39.2872 138.586 38.3273 140.249 37.1389 140.935L29.2739 145.476C28.0854 146.162 27.1193 145.611 27.1154 144.246L27.1143 143.838C27.1104 142.473 28.0703 140.81 29.2587 140.124L37.1237 135.583Z" fill="#DEE6FD"/>
<path d="M43.1729 96.6535L63.3378 85.0112L63.381 100.237L43.216 111.879L43.1729 96.6535ZM59.363 95.135L59.3619 94.728C59.358 93.3623 58.3919 92.8118 57.2034 93.4979L49.3352 98.0406C48.1468 98.7268 47.1869 100.389 47.1908 101.755L47.1919 102.162C47.1958 103.528 48.1619 104.078 49.3504 103.392L57.2186 98.8493C58.4071 98.1632 59.3669 96.5007 59.363 95.135Z" fill="white" stroke="#DEE6FD"/>
<path d="M57.2021 93.4979C58.3906 92.8117 59.3567 93.3623 59.3606 94.7279L59.3617 95.135C59.3656 96.5006 58.4057 98.1631 57.2173 98.8493L49.3491 103.392C48.1606 104.078 47.1945 103.528 47.1906 102.162L47.1895 101.755C47.1856 100.389 48.1454 98.7267 49.3339 98.0406L57.2021 93.4979Z" fill="#DEE6FD"/>
<path d="M23.0947 138.74L43.2565 127.1L43.2996 142.322L23.1379 153.962L23.0947 138.74ZM39.2817 137.22L39.2805 136.813C39.2767 135.448 38.3105 134.897 37.1221 135.583L29.2571 140.124C28.0686 140.81 27.1087 142.473 27.1126 143.838L27.1138 144.245C27.1176 145.611 28.0838 146.162 29.2722 145.475L37.1373 140.935C38.3257 140.248 39.2855 138.586 39.2817 137.22Z" fill="white" stroke="#DEE6FD"/>
<path d="M37.0808 120.362C38.2692 119.675 39.2353 120.226 39.2392 121.592L39.2404 121.999C39.2442 123.364 38.2844 125.027 37.0959 125.713L29.2309 130.254C28.0425 130.94 27.0763 130.39 27.0725 129.024L27.0713 128.617C27.0674 127.251 28.0273 125.589 29.2157 124.902L37.0808 120.362Z" fill="#DEE6FD"/>
<path d="M57.1601 78.2762C58.3486 77.59 59.3147 78.1406 59.3186 79.5063L59.3197 79.9133C59.3236 81.2789 58.3638 82.9415 57.1753 83.6276L49.3071 88.1704C48.1186 88.8565 47.1525 88.3059 47.1486 86.9403L47.1475 86.5332C47.1436 85.1676 48.1034 83.5051 49.2919 82.8189L57.1601 78.2762Z" fill="white"/>
<path d="M37.0368 105.14C38.2253 104.454 39.1914 105.004 39.1953 106.37L39.1964 106.777C39.2003 108.143 38.2404 109.805 37.052 110.491L29.187 115.032C27.9985 115.718 27.0324 115.168 27.0285 113.802L27.0274 113.395C27.0235 112.029 27.9834 110.367 29.1718 109.681L37.0368 105.14Z" fill="#DEE6FD"/>
<path d="M43.1279 81.4318L63.2929 69.7896L63.336 85.0112L43.1711 96.6535L43.1279 81.4318ZM59.3181 79.9134L59.317 79.5063C59.3131 78.1407 58.347 77.5901 57.1585 78.2762L49.2903 82.819C48.1018 83.5051 47.142 85.1677 47.1458 86.5333L47.147 86.9404C47.1509 88.306 48.117 88.8566 49.3055 88.1704L57.1737 83.6277C58.3621 82.9415 59.322 81.279 59.3181 79.9134Z" fill="#DEE6FD" stroke="white"/>
<path d="M23.0098 108.294L43.1715 96.6533L43.2147 111.879L23.0529 123.519L23.0098 108.294ZM39.1967 106.777L39.1956 106.37C39.1917 105.004 38.2256 104.454 37.0371 105.14L29.1721 109.681C27.9837 110.367 27.0238 112.03 27.0277 113.395L27.0288 113.802C27.0327 115.168 27.9988 115.718 29.1873 115.032L37.0523 110.491C38.2407 109.805 39.2006 108.143 39.1967 106.777Z" fill="white" stroke="#DEE6FD"/>
<path d="M36.9958 89.9183C38.1842 89.2321 39.1504 89.7827 39.1542 91.1483L39.1554 91.5554C39.1593 92.921 38.1994 94.5836 37.011 95.2697L29.146 99.8106C27.9575 100.497 26.9914 99.9462 26.9875 98.5806L26.9863 98.1735C26.9825 96.8078 27.9423 95.1453 29.1308 94.4591L36.9958 89.9183Z" fill="white"/>
<path d="M22.9668 93.072L43.1285 81.4316L43.1717 96.6533L23.01 108.294L22.9668 93.072ZM39.1538 91.5555L39.1526 91.1484C39.1487 89.7828 38.1826 89.2322 36.9941 89.9183L29.1291 94.4592C27.9407 95.1453 26.9808 96.8079 26.9847 98.1736L26.9858 98.5807C26.9897 99.9462 27.9559 100.497 29.1443 99.8106L37.0093 95.2698C38.1978 94.5836 39.1576 92.9211 39.1538 91.5555Z" fill="#DEE6FD" stroke="white"/>
<path d="M154.707 17.0117L154.966 108.345L23.2257 184.406L22.9668 93.0721L154.707 17.0117Z" stroke="#333333"/>
</g>
</g>
<defs>
<filter id="filter0_d_343_4" x="2.46598" y="16.1471" width="153.002" height="189.124" filterUnits="userSpaceOnUse" color-interpolation-filters="sRGB">
<feFlood flood-opacity="0" result="BackgroundImageFix"/>
<feColorMatrix in="SourceAlpha" type="matrix" values="0 0 0 0 0 0 0 0 0 0 0 0 0 0 0 0 0 0 127 0" result="hardAlpha"/>
<feOffset dx="-10" dy="10"/>
<feGaussianBlur stdDeviation="5"/>
<feComposite in2="hardAlpha" operator="out"/>
<feColorMatrix type="matrix" values="0 0 0 0 0.368627 0 0 0 0 0.388235 0 0 0 0 0.898039 0 0 0 0.05 0"/>
<feBlend mode="normal" in2="BackgroundImageFix" result="effect1_dropShadow_343_4"/>
<feBlend mode="normal" in="SourceGraphic" in2="effect1_dropShadow_343_4" result="shape"/>
</filter>
<clipPath id="clip0_343_4">
<rect width="156" height="210" fill="white"/>
</clipPath>
</defs>
</svg>
