<svg width="149" height="147" viewBox="0 0 149 147" fill="none" xmlns="http://www.w3.org/2000/svg">
<g clip-path="url(#clip0_343_236)">
<path d="M147.999 38.3847L91.9997 6.30469L36 38.3847V102.544L91.9997 134.624L148 102.544L147.999 38.3847Z" fill="#DEE6FD"/>
<path d="M147.999 38.3847L91.9997 6.30469L36 38.3847V102.544L91.9997 134.624M147.999 38.3847L148 102.544L91.9997 134.624M147.999 38.3847L147.998 38.3853M91.9997 134.624V134.617" stroke="#333333" stroke-miterlimit="10"/>
<path d="M124.481 41.6304L124.327 94.6278" stroke="#2563EB" stroke-miterlimit="10"/>
<path d="M124.48 41.6302L124.326 94.6277L94.6836 77.9647L94.8379 24.9673L124.48 41.6302Z" fill="white"/>
<path d="M124.48 41.6303L127.999 39.6396L127.844 92.6371L124.326 94.6277L124.48 41.6303Z" fill="#2563EB"/>
<path d="M94.8379 24.9672L98.3561 22.9766L127.999 39.6395L124.48 41.6301L94.8379 24.9672Z" fill="#2563EB"/>
<path d="M95.1853 77.6726L95.3379 25.2593L98.3578 23.5506L127.499 39.9315L127.346 92.3449L124.326 94.0536L95.1853 77.6726Z" stroke="#333333"/>
<path d="M100.811 54.6992L100.656 107.697" stroke="#2563EB" stroke-miterlimit="10"/>
<path d="M100.811 54.6991L100.656 107.697L71.0137 91.0336L71.168 38.0361L100.811 54.6991Z" fill="white"/>
<path d="M100.811 54.6991L104.329 52.7085L104.174 105.706L100.656 107.697L100.811 54.6991Z" fill="#2563EB"/>
<path d="M71.168 38.0361L74.6862 36.0454L104.329 52.7083L100.811 54.699L71.168 38.0361Z" fill="#2563EB"/>
<path d="M71.5144 90.7415L71.667 38.3281L74.6869 36.6194L103.828 53.0004L103.675 105.414L100.655 107.122L71.5144 90.7415Z" stroke="#333333"/>
<path d="M77.1387 67.7671L76.9844 120.765" stroke="white" stroke-miterlimit="10"/>
<path d="M77.1406 67.7669L76.9862 120.764L47.3438 104.101L47.4981 51.104L77.1406 67.7669Z" fill="white"/>
<path d="M77.1406 67.767L80.6588 65.7764L80.5045 118.774L76.9863 120.764L77.1406 67.767Z" fill="#2563EB"/>
<path d="M47.498 51.1039L51.0162 49.1133L80.6588 65.7762L77.1406 67.7669L47.498 51.1039Z" fill="#2563EB"/>
<path d="M47.8435 103.809L47.9961 51.396L51.016 49.6873L80.1569 66.0682L80.0043 118.482L76.9844 120.19L47.8435 103.809Z" stroke="#333333"/>
<path d="M53.4678 80.8359L53.3135 133.833" stroke="white" stroke-miterlimit="10"/>
<path d="M53.4668 80.8358L53.3125 133.833L23.6699 117.17L23.8242 64.1729L53.4668 80.8358Z" fill="white"/>
<path d="M53.4668 80.8359L56.985 78.8452L56.8307 131.843L53.3125 133.833L53.4668 80.8359Z" fill="white"/>
<path d="M23.8242 64.1728L27.3424 62.1821L56.985 78.8451L53.4668 80.8357L23.8242 64.1728Z" fill="white"/>
<path d="M24.1719 116.878L24.3245 64.4648L27.3443 62.7562L56.4852 79.1371L56.3326 131.55L53.3128 133.259L24.1719 116.878Z" stroke="#333333"/>
<path d="M29.7969 93.9038L29.6426 146.901" stroke="white" stroke-miterlimit="10"/>
<path d="M29.7969 93.9041L29.6426 146.902L0 130.239L0.154316 77.2412L29.7969 93.9041Z" fill="white"/>
<path d="M29.7969 93.9042L33.3151 91.9136L33.1608 144.911L29.6426 146.902L29.7969 93.9042Z" fill="white"/>
<path d="M0.154297 77.2411L3.67249 75.2505L33.315 91.9134L29.7969 93.9041L0.154297 77.2411Z" fill="white"/>
<path d="M0.500732 129.947L0.653347 77.5332L3.67319 75.8245L32.8141 92.2055L32.6615 144.619L29.6417 146.327L0.500732 129.947Z" stroke="#333333"/>
<path d="M60.0077 16.629V17.129H60.5077H62.7792H63.2792V16.629V10.2236C63.2792 5.13604 59.0716 1.0293 53.9033 1.0293C48.735 1.0293 44.5273 5.13604 44.5273 10.2236V16.629V17.129H45.0273H47.2989V16.629H47.7989V16.129V10.2236C47.7989 6.94232 50.528 4.25436 53.9032 4.25436C57.2786 4.25436 60.0077 6.94233 60.0077 10.2236V16.629Z" fill="#FFBC47" stroke="#333333"/>
<path d="M42 16.1289H41.5V16.6289V39.9483V40.4483H42H65.8064H66.3064V39.9483V16.6289V16.1289H65.8064H42Z" fill="#FFBC47" stroke="#333333"/>
<path d="M55.0694 27.3743C55.896 26.9589 56.4695 26.1136 56.4695 25.1276V24.6276H56.4194C56.1828 23.4673 55.1391 22.604 53.9037 22.604C52.4964 22.604 51.3379 23.7242 51.3379 25.1276C51.3379 26.1136 51.9115 26.9588 52.738 27.3743L52.4842 34.2152L52.465 34.7338H52.9839H54.8235H55.3424L55.3232 34.2152L55.0694 27.3743Z" fill="white" stroke="#333333"/>
</g>
<defs>
<clipPath id="clip0_343_236">
<rect width="149" height="147" fill="white"/>
</clipPath>
</defs>
</svg>
