<svg width="279" height="388" viewBox="0 0 279 388" fill="none" xmlns="http://www.w3.org/2000/svg">
<g clip-path="url(#clip0_343_107)">
<path d="M266.795 1.52933L267.389 233.037L1.65389 386.459L1.06055 154.951L266.795 1.52933Z" fill="white" stroke="#333333"/>
<path d="M1 155.57L266.735 2.14795L266.796 23.746L1.06123 177.168L1 155.57ZM11.7371 163.874C13.5086 162.852 14.9412 160.377 14.9355 158.341C14.9297 156.312 13.4877 155.49 11.7162 156.513C9.95027 157.533 8.51767 160.014 8.52343 162.043C8.52919 164.079 9.97115 164.894 11.7371 163.874ZM35.2572 150.295C37.0232 149.276 38.4558 146.801 38.45 144.765C38.4443 142.736 37.0023 141.914 35.2363 142.934C33.4648 143.956 32.0322 146.438 32.038 148.467C32.0437 150.503 33.4856 151.318 35.2572 150.295ZM23.4971 157.085C25.2686 156.062 26.6957 153.59 26.6899 151.555C26.6842 149.525 25.2478 148.7 23.4763 149.723C21.7047 150.746 20.2777 153.224 20.2834 155.253C20.2892 157.289 21.7256 158.108 23.4971 157.085Z" fill="#DEE6FD"/>
<path d="M266.795 1.52933L267.389 233.037L1.65389 386.459L1.06055 154.951L266.795 1.52933Z" stroke="#333333"/>
<path d="M35.2375 142.933C37.0034 141.913 38.4454 142.735 38.4511 144.764C38.4569 146.8 37.0243 149.275 35.2583 150.295C33.4868 151.317 32.0449 150.502 32.0391 148.466C32.0333 146.437 33.4659 143.956 35.2375 142.933Z" fill="white" stroke="white"/>
<path d="M25.7484 154.718C27.0014 152.562 27.0047 150.226 25.7559 149.5C24.507 148.774 22.4788 149.934 21.2258 152.09C19.9728 154.246 19.9695 156.582 21.2183 157.308C22.4672 158.034 24.4954 156.874 25.7484 154.718Z" fill="white" stroke="white"/>
<path d="M11.7192 156.513C13.4907 155.49 14.9327 156.312 14.9384 158.341C14.9442 160.377 13.5116 162.851 11.74 163.874C9.9741 164.894 8.53215 164.079 8.52638 162.043C8.52063 160.014 9.95322 157.532 11.7192 156.513Z" fill="white" stroke="white"/>
<g filter="url(#filter0_d_343_107)">
<path d="M206.473 141.595L206.848 248.082L38.9533 345.016L38.5781 238.529L206.473 141.595Z" fill="white" stroke="#333333"/>
<path d="M64 306.529L77.6392 276.142L106.861 261.774L139.425 222.112L165.5 226.029L185 186.529" stroke="#2563EB" stroke-miterlimit="10"/>
<path d="M184.901 190.332C187.056 190.332 188.803 188.585 188.803 186.431C188.803 184.276 187.056 182.529 184.901 182.529C182.747 182.529 181 184.276 181 186.431C181 188.585 182.747 190.332 184.901 190.332Z" fill="#2563EB"/>
<path d="M164.901 230.332C167.056 230.332 168.803 228.585 168.803 226.431C168.803 224.276 167.056 222.529 164.901 222.529C162.747 222.529 161 224.276 161 226.431C161 228.585 162.747 230.332 164.901 230.332Z" fill="#2563EB"/>
<path d="M139.901 226.332C142.056 226.332 143.803 224.585 143.803 222.431C143.803 220.276 142.056 218.529 139.901 218.529C137.747 218.529 136 220.276 136 222.431C136 224.585 137.747 226.332 139.901 226.332Z" fill="#2563EB"/>
<path d="M107.901 265.332C110.056 265.332 111.803 263.585 111.803 261.431C111.803 259.276 110.056 257.529 107.901 257.529C105.747 257.529 104 259.276 104 261.431C104 263.585 105.747 265.332 107.901 265.332Z" fill="#2563EB"/>
<path d="M77.9014 279.332C80.056 279.332 81.8027 277.585 81.8027 275.431C81.8027 273.276 80.056 271.529 77.9014 271.529C75.7467 271.529 74 273.276 74 275.431C74 277.585 75.7467 279.332 77.9014 279.332Z" fill="#2563EB"/>
<path d="M63.9014 310.332C66.056 310.332 67.8027 308.585 67.8027 306.431C67.8027 304.276 66.056 302.529 63.9014 302.529C61.7467 302.529 60 304.276 60 306.431C60 308.585 61.7467 310.332 63.9014 310.332Z" fill="#2563EB"/>
<path d="M276.229 32.5293L276.411 96.7958L252.49 110.607L246.703 125.931L240.617 117.462L216.928 131.138L216.746 66.8715L276.229 32.5293Z" fill="white" stroke="#333333"/>
<path d="M222.448 210.493C218.213 207.063 215.557 201.159 215.234 193.214C215.553 200.929 218.116 206.974 222.448 210.493Z" fill="white"/>
<path d="M215.216 192.684C215.212 192.547 215.209 192.407 215.207 192.269C215.209 192.408 215.212 192.546 215.216 192.684Z" fill="white"/>
<path d="M246.492 137.477L246.529 150.796C235.669 157.066 226.756 172.504 226.791 184.984C226.792 185.089 226.793 185.194 226.794 185.298C226.797 185.447 226.799 185.535 226.801 185.622C226.805 185.753 226.808 185.85 226.812 185.948C227.014 190.823 228.631 194.634 231.364 196.853C231.395 196.878 231.426 196.903 231.458 196.928C231.562 197.009 231.605 197.043 231.649 197.076C232.392 197.63 233.184 198.062 234.045 198.38C234.112 198.404 234.17 198.425 234.229 198.445C234.315 198.475 234.36 198.491 234.406 198.506L227.279 213.113C227.16 213.075 227.042 213.035 226.925 212.994C226.824 212.959 226.724 212.922 226.625 212.885C226.583 212.869 226.542 212.853 226.5 212.837C226.446 212.817 226.393 212.795 226.339 212.774C226.276 212.749 226.212 212.723 226.148 212.697C224.954 212.196 223.902 211.593 222.932 210.869C222.836 210.797 222.764 210.742 222.692 210.686C222.559 210.582 222.504 210.538 222.448 210.493C218.116 206.974 215.553 200.929 215.234 193.214C215.227 193.054 215.222 192.902 215.218 192.747C215.212 192.547 215.209 192.408 215.207 192.269C215.202 192.009 215.201 191.843 215.2 191.676C215.144 171.888 229.271 147.419 246.492 137.477Z" fill="#FFBE5E"/>
<path d="M233.945 198.339C233.123 198.026 232.365 197.609 231.673 197.092C232.37 197.611 233.13 198.027 233.945 198.339Z" fill="white"/>
<path d="M234.039 198.377C234.007 198.365 233.975 198.352 233.943 198.34L233.942 198.339C233.975 198.352 234.007 198.365 234.039 198.377Z" fill="white"/>
<path d="M246.491 137.477C263.836 127.463 277.939 135.5 277.995 155.421C278.052 175.342 264.041 199.61 246.696 209.624C239.214 213.944 232.333 214.902 226.925 212.994C227.042 213.035 227.16 213.075 227.278 213.114L234.406 198.506C237.668 199.625 241.976 199.009 246.658 196.305C257.601 189.987 266.432 174.683 266.396 162.118C266.361 149.552 257.472 144.478 246.529 150.796L246.491 137.477Z" fill="white"/>
<path d="M246.49 137.477L246.24 137.044L246.188 137.074L246.145 137.115L246.49 137.477ZM246.49 137.477L246.145 137.115L245.989 137.264L245.99 137.479L246.49 137.477ZM246.49 137.477L246.74 137.911L246.992 137.765L246.99 137.475L246.49 137.477ZM222.691 210.686L222.381 211.079L222.384 211.081L222.691 210.686ZM222.931 210.869L222.631 211.269L222.632 211.27L222.931 210.869ZM226.147 212.697L225.954 213.158L225.956 213.159L226.147 212.697ZM226.499 212.837L226.679 212.371H226.678L226.499 212.837ZM226.924 212.994L226.758 213.466H226.759L226.924 212.994ZM234.405 198.506L234.251 198.981L234.667 199.116L234.856 198.721L234.405 198.506ZM234.405 198.506L234.567 198.033L234.145 197.888L233.953 198.29L234.405 198.506ZM246.528 150.796L246.278 150.363L246.027 150.508L246.028 150.798L246.528 150.796ZM246.528 150.796L246.778 151.229L247.03 151.084L247.028 150.794L246.528 150.796ZM226.793 185.298L226.293 185.306V185.307L226.793 185.298ZM231.457 196.928L231.146 197.32L231.148 197.321L231.457 196.928ZM231.648 197.076L231.348 197.475L231.349 197.476L231.648 197.076ZM234.228 198.446L234.064 198.918L234.066 198.919L234.228 198.446ZM246.74 137.911C255.322 132.956 262.986 132.529 268.478 135.658C273.969 138.786 277.467 145.568 277.494 155.422L278.494 155.419C278.466 145.352 274.884 138.156 268.973 134.789C263.064 131.422 255.003 131.985 246.24 137.044L246.74 137.911ZM215.699 191.675C215.672 181.891 219.154 170.913 224.799 161.135C230.445 151.356 238.225 142.827 246.74 137.911L246.24 137.044C237.536 142.069 229.642 150.746 223.933 160.635C218.224 170.523 214.671 181.674 214.699 191.677L215.699 191.675ZM215.706 192.261C215.701 192.003 215.7 191.839 215.699 191.675L214.699 191.677C214.7 191.847 214.701 192.016 214.706 192.278L215.706 192.261ZM215.717 192.733C215.711 192.535 215.708 192.398 215.706 192.261L214.706 192.278C214.708 192.418 214.711 192.559 214.717 192.762L215.717 192.733ZM215.733 193.194C215.726 193.036 215.721 192.886 215.717 192.733L214.717 192.762C214.722 192.918 214.727 193.072 214.733 193.235L215.733 193.194ZM222.762 210.105C218.577 206.706 216.047 200.819 215.733 193.194L214.733 193.235C215.056 201.04 217.653 207.243 222.132 210.881L222.762 210.105ZM222.938 210.245C222.848 210.173 222.805 210.14 222.762 210.105L222.132 210.881C222.181 210.921 222.231 210.96 222.319 211.03L222.938 210.245ZM223 210.294L222.938 210.245L222.319 211.03L222.381 211.079L223 210.294ZM223.231 210.469C223.136 210.398 223.066 210.345 222.998 210.292L222.384 211.081C222.459 211.139 222.534 211.196 222.631 211.269L223.231 210.469ZM226.34 212.236C225.183 211.751 224.166 211.168 223.23 210.468L222.632 211.27C223.635 212.019 224.723 212.642 225.954 213.158L226.34 212.236ZM226.523 212.31C226.461 212.285 226.399 212.26 226.338 212.235L225.956 213.159C226.022 213.186 226.088 213.213 226.154 213.239L226.523 212.31ZM226.678 212.371C226.628 212.351 226.576 212.331 226.523 212.31L226.154 213.239C226.207 213.26 226.263 213.282 226.32 213.304L226.678 212.371ZM226.694 212.377L226.679 212.371L226.319 213.304L226.335 213.31L226.694 212.377ZM226.799 212.417C226.765 212.404 226.731 212.391 226.694 212.377L226.335 213.31C226.371 213.324 226.409 213.339 226.448 213.353L226.799 212.417ZM227.09 212.523C226.993 212.489 226.897 212.453 226.799 212.417L226.448 213.353C226.549 213.391 226.653 213.429 226.758 213.466L227.09 212.523ZM227.131 212.537C227.118 212.532 227.103 212.527 227.09 212.523L226.759 213.466C226.773 213.471 226.787 213.476 226.802 213.481L227.131 212.537ZM246.445 209.191C239.062 213.454 232.352 214.361 227.131 212.537L226.801 213.481C232.384 215.432 239.403 214.412 246.945 210.057L246.445 209.191ZM277.494 155.422C277.522 165.274 274.069 176.235 268.437 185.988C262.806 195.74 255.024 204.238 246.445 209.191L246.945 210.057C255.711 204.996 263.607 196.353 269.303 186.488C274.999 176.623 278.523 165.489 278.494 155.419L277.494 155.422ZM234.242 198.979C237.687 200.16 242.149 199.485 246.907 196.738L246.407 195.872C241.801 198.532 237.646 199.089 234.567 198.033L234.242 198.979ZM246.907 196.738C252.472 193.525 257.473 188.047 261.076 181.804C264.68 175.562 266.913 168.508 266.895 162.116L265.895 162.119C265.913 168.293 263.749 175.174 260.21 181.304C256.672 187.435 251.785 192.767 246.407 195.872L246.907 196.738ZM266.895 162.116C266.877 155.727 264.604 151.111 260.8 148.941C256.997 146.773 251.841 147.152 246.278 150.363L246.778 151.229C252.159 148.122 256.919 147.879 260.304 149.81C263.689 151.74 265.878 155.943 265.895 162.119L266.895 162.116ZM246.028 150.798L247.028 150.794V150.793L246.028 150.798ZM246.278 150.363C240.754 153.553 235.754 159.053 232.14 165.312C228.527 171.57 226.272 178.636 226.29 184.985L227.29 184.983C227.273 178.853 229.457 171.96 233.006 165.812C236.556 159.663 241.443 154.31 246.778 151.229L246.278 150.363ZM226.29 184.985C226.291 185.093 226.292 185.2 226.293 185.306L227.293 185.291C227.292 185.188 227.291 185.086 227.29 184.983L226.29 184.985ZM226.293 185.307C226.296 185.456 226.298 185.546 226.3 185.636L227.3 185.608C227.298 185.524 227.296 185.438 227.293 185.289L226.293 185.307ZM226.3 185.636C226.304 185.768 226.308 185.869 226.312 185.968L227.311 185.927C227.307 185.833 227.304 185.737 227.3 185.608L226.3 185.636ZM226.312 185.968C226.517 190.933 228.168 194.903 231.047 197.241L231.678 196.465C229.092 194.365 227.509 190.713 227.311 185.927L226.312 185.968ZM231.047 197.241C231.062 197.253 231.076 197.265 231.09 197.275L231.712 196.492C231.7 196.483 231.689 196.474 231.678 196.465L231.047 197.241ZM231.09 197.275C231.108 197.29 231.131 197.308 231.146 197.32L231.767 196.536C231.746 196.519 231.731 196.508 231.712 196.492L231.09 197.275ZM231.148 197.321C231.254 197.405 231.301 197.44 231.348 197.475L231.949 196.676C231.908 196.645 231.867 196.614 231.765 196.535L231.148 197.321ZM231.349 197.476C232.129 198.059 232.965 198.514 233.871 198.849L234.217 197.911C233.402 197.61 232.652 197.201 231.948 196.675L231.349 197.476ZM233.871 198.849C233.939 198.874 234.001 198.897 234.064 198.918L234.391 197.973C234.337 197.954 234.282 197.935 234.217 197.911L233.871 198.849ZM234.066 198.919C234.09 198.927 234.11 198.934 234.128 198.94L234.452 197.994C234.434 197.988 234.413 197.981 234.389 197.972L234.066 198.919ZM234.128 198.94C234.176 198.956 234.213 198.969 234.251 198.981L234.559 198.03C234.53 198.021 234.501 198.011 234.452 197.994L234.128 198.94Z" fill="#333333"/>
<path d="M204.927 133.274V72.5293L120.951 121.013V121.008L37 169.477V230.222L204.927 133.274Z" fill="#DEE6FD"/>
<mask id="mask0_343_107" style="mask-type:alpha" maskUnits="userSpaceOnUse" x="37" y="72" width="168" height="159">
<path d="M204.927 133.274V72.5293L120.951 121.013V121.008L37 169.477V230.222L204.927 133.274Z" fill="#DEE6FD"/>
</mask>
<g mask="url(#mask0_343_107)">
<path d="M120 177.529V159.529L159.5 135.529L178 142.029L120 177.529Z" fill="white"/>
<path d="M153 134.529L121 152.529L119.5 133.029L85 130.029L119.5 105.529L151.5 86.5293L153 134.529Z" fill="white"/>
<path d="M86 196.529V178.529L118 159.529V178.529L86 196.529Z" fill="white"/>
<path d="M21 191.529V173.529L53 154.529V173.529L21 191.529Z" fill="white"/>
<path d="M56 170.529V152.529L88 133.529L114 136.529L56 170.529Z" fill="white"/>
<path d="M157 104.529V86.5293L189 67.5293L215 70.5293L157 104.529Z" fill="white"/>
<path d="M52 243.529V200.529L84 181.529V225.529L52 243.529Z" fill="white"/>
<path d="M15 259.529V216.529L47 197.529V241.529L15 259.529Z" fill="white"/>
<path d="M33.5 208.029V190.029L117 137.529V156.529L33.5 208.029Z" fill="white"/>
<path d="M157 131.529V109.151L197 85.5293L207.5 109.151L191 145.029L157 131.529Z" fill="white"/>
</g>
<path d="M204.859 133.529V72.7842L120.883 121.268V121.263L36.9316 169.732V230.477L204.859 133.529Z" stroke="#333333"/>
<path d="M49.5846 243.092C52.9971 241.122 55.771 242.702 55.7821 246.624C55.7932 250.535 53.0373 255.309 49.6248 257.279C46.2206 259.244 43.4467 257.664 43.4356 253.752C43.4245 249.831 46.1804 245.057 49.5846 243.092Z" fill="#DEE6FD"/>
<path d="M65.543 240.355L112.359 211.745" stroke="#DEE6FD" stroke-width="2" stroke-linecap="round"/>
<path d="M231.352 82.0085L265.163 61.2012" stroke="#DEE6FD" stroke-width="2" stroke-linecap="round"/>
<path d="M231.352 92.4118L265.163 71.6045" stroke="#DEE6FD" stroke-width="2" stroke-linecap="round"/>
<path d="M231.352 102.816L265.163 82.0083" stroke="#DEE6FD" stroke-width="2" stroke-linecap="round"/>
</g>
<path d="M180.5 67.5293C174.701 67.5293 170 72.261 170 78.0979C170 89.673 180.5 102.529 180.5 102.529C180.5 102.529 191 89.673 191 78.0979C191 72.261 186.299 67.5293 180.5 67.5293ZM180.5 81.3741C178.288 81.3741 176.495 79.5693 176.495 77.343C176.495 75.1167 178.288 73.3119 180.5 73.3119C182.712 73.3119 184.505 75.1167 184.505 77.343C184.505 79.5693 182.712 81.3741 180.5 81.3741Z" fill="#FFBC47" stroke="#333333" stroke-miterlimit="10"/>
<path d="M135.5 125.529C129.701 125.529 125 130.261 125 136.098C125 147.673 135.5 160.529 135.5 160.529C135.5 160.529 146 147.673 146 136.098C146 130.261 141.299 125.529 135.5 125.529ZM135.5 139.374C133.288 139.374 131.495 137.569 131.495 135.343C131.495 133.117 133.288 131.312 135.5 131.312C137.712 131.312 139.505 133.117 139.505 135.343C139.505 137.569 137.712 139.374 135.5 139.374Z" fill="#2563EB" stroke="#333333" stroke-miterlimit="10"/>
</g>
<defs>
<filter id="filter0_d_343_107" x="16.4316" y="31.6647" width="262.063" height="334.216" filterUnits="userSpaceOnUse" color-interpolation-filters="sRGB">
<feFlood flood-opacity="0" result="BackgroundImageFix"/>
<feColorMatrix in="SourceAlpha" type="matrix" values="0 0 0 0 0 0 0 0 0 0 0 0 0 0 0 0 0 0 127 0" result="hardAlpha"/>
<feOffset dx="-10" dy="10"/>
<feGaussianBlur stdDeviation="5"/>
<feComposite in2="hardAlpha" operator="out"/>
<feColorMatrix type="matrix" values="0 0 0 0 0.368627 0 0 0 0 0.388235 0 0 0 0 0.898039 0 0 0 0.05 0"/>
<feBlend mode="normal" in2="BackgroundImageFix" result="effect1_dropShadow_343_107"/>
<feBlend mode="normal" in="SourceGraphic" in2="effect1_dropShadow_343_107" result="shape"/>
</filter>
<clipPath id="clip0_343_107">
<rect width="279" height="388" fill="white"/>
</clipPath>
</defs>
</svg>
