<svg width="97" height="67" viewBox="0 0 97 67" fill="none" xmlns="http://www.w3.org/2000/svg">
<path d="M95.6083 28.3554L48.5353 55.7113L1.1543 28.3558L48.2273 1L95.6083 28.3554Z" fill="white"/>
<path d="M54.1841 27.6904L48.0924 31.2305L41.9609 27.6905L48.0526 24.1504L54.1841 27.6904Z" fill="#FFBE5E"/>
<path d="M48.1409 24.2202L42.0553 27.7568L35.9238 24.2167L42.0094 20.6802L48.1409 24.2202Z" fill="#FFBE5E"/>
<path d="M60.2269 24.2202L54.1413 27.7568L48.0098 24.2167L54.0954 20.6802L60.2269 24.2202Z" fill="#FFBE5E"/>
<path d="M48.1451 31.1929L42.0534 34.733L35.9219 31.1929L42.0136 27.6528L48.1451 31.1929Z" fill="#FFBE5E"/>
<path d="M60.231 31.1929L54.1393 34.733L48.0078 31.1929L54.0995 27.6528L60.231 31.1929Z" fill="#FFBE5E"/>
<path d="M95.6096 28.3555L95.4558 38.2321L48.3828 65.588L48.5366 55.7113L95.6096 28.3555Z" fill="#DEE6FD"/>
<path d="M48.5347 55.7114L48.381 65.588L1 38.2326L1.15375 28.356L48.5347 55.7114Z" fill="#DEE6FD"/>
<path d="M48.2268 1L1.15379 28.3559L1 38.2325L48.381 65.5879L95.454 38.2321L95.6078 28.3554L48.2268 1Z" stroke="#333333" stroke-miterlimit="10"/>
</svg>
