<svg width="184" height="146" viewBox="0 0 184 146" fill="none" xmlns="http://www.w3.org/2000/svg">
<g clip-path="url(#clip0_343_267)">
<path d="M1 86.5293L24 45.5293L171 48.5293L163.5 76.5293L182.5 100.529L115.5 144.529L1 86.5293Z" fill="#DEE6FD" stroke="#333333" stroke-miterlimit="10"/>
<path d="M78.7213 42.2998L78.5431 107.151L35.1133 81.2816L35.2084 46.6661L78.7213 42.2998Z" fill="white"/>
<path d="M78.7212 42.3L114 21.1479L113.821 85.9995L78.543 107.152L78.7212 42.3Z" fill="white"/>
<path d="M35.208 46.6662L70.4864 25.5142L113.999 21.1479L78.7209 42.3L35.208 46.6662Z" fill="white"/>
<path d="M112.607 92.7702L112.512 127.386L78.543 107.152L78.6381 72.5361L112.607 92.7702Z" fill="white"/>
<path d="M112.607 92.7702L147.885 71.6182L147.79 106.234L112.512 127.386L112.607 92.7702Z" fill="white"/>
<path d="M78.6387 72.5358L113.917 51.3838L147.886 71.6179L112.607 92.7699L78.6387 72.5358Z" fill="white"/>
<path d="M94.9033 94.4086L94.8418 116.79L87.2285 112.255L87.29 89.8735L94.9033 94.4086Z" fill="#DEE6FD" stroke="white" stroke-miterlimit="10"/>
<path d="M102.518 98.9446L102.457 121.326L94.8418 116.79L94.9033 94.4087L102.518 98.9446Z" fill="#DEE6FD" stroke="white" stroke-miterlimit="10"/>
<path d="M48.1734 66.3289L48.1119 81.9906L40.4971 77.4547L40.5586 61.793L48.1734 66.3289Z" fill="#DEE6FD"/>
<path d="M60.6948 73.9153L60.6333 89.5771L53.0186 85.0412L53.0801 69.3794L60.6948 73.9153Z" fill="#DEE6FD"/>
<path d="M73.3384 54.5666L73.2769 70.2284L65.6621 65.6925L65.7236 50.0308L73.3384 54.5666Z" fill="#DEE6FD"/>
<path d="M73.3384 81.2478L73.2769 96.9096L65.6621 92.3737L65.7236 76.7119L73.3384 81.2478Z" fill="#DEE6FD"/>
<path d="M113.917 51.3838L78.6387 72.5358" stroke="#DEE6FD" stroke-miterlimit="10"/>
<path d="M113.278 21.5293L78 42.6813" stroke="#DEE6FD" stroke-miterlimit="10"/>
<path d="M107.956 100.494L85.5061 87.0332L80.8867 91.9238L81.2705 92.8561L103.72 106.316L108.34 101.424L107.956 100.494Z" fill="#2563EB"/>
<path d="M50.2508 64.7097L41.0979 59.1538L36.4785 64.0444L36.8623 64.9767L46.0152 70.5326L50.6346 65.6403L50.2508 64.7097Z" fill="#2563EB"/>
<path d="M62.4637 72.4783L53.3108 66.9224L48.6914 71.8129L49.0752 72.7452L58.2281 78.3011L62.8475 73.4088L62.4637 72.4783Z" fill="#2563EB"/>
<path d="M74.6766 80.2473L65.5237 74.6914L60.9043 79.582L61.2881 80.5143L70.441 86.0702L75.0603 81.1779L74.6766 80.2473Z" fill="#2563EB"/>
<path d="M35 47.0293L78.5 42.5293V73.0293L112 93.0293L147 73.0293" stroke="#DEE6FD" stroke-linecap="round"/>
<path d="M113.917 51.384L114 21.1479L70.4868 25.5142L35.2084 46.6662L35.1133 81.2817L78.5431 107.152L112.512 127.386L147.79 106.234L147.885 71.6181L113.917 51.384Z" stroke="#333333" stroke-miterlimit="10"/>
<path d="M95.5 0.529297C89.701 0.529297 85 5.26103 85 11.0979C85 22.673 95.5 35.5293 95.5 35.5293C95.5 35.5293 106 22.673 106 11.0979C106 5.26103 101.299 0.529297 95.5 0.529297ZM95.5 14.3741C93.2882 14.3741 91.4951 12.5693 91.4951 10.343C91.4951 8.11669 93.2882 6.31193 95.5 6.31193C97.7119 6.31193 99.5049 8.11669 99.5049 10.343C99.5049 12.5693 97.7118 14.3741 95.5 14.3741Z" fill="#FFBC47" stroke="#333333" stroke-miterlimit="10"/>
</g>
<defs>
<clipPath id="clip0_343_267">
<rect width="184" height="146" fill="white"/>
</clipPath>
</defs>
</svg>
