<svg width="78" height="80" viewBox="0 0 78 80" fill="none" xmlns="http://www.w3.org/2000/svg">
<g clip-path="url(#clip0_343_207)">
<path d="M36.3628 47.6201C39.7395 52.664 44.0183 56.9827 48.6775 59.6727L39.0823 65.2489C34.423 62.5588 30.1442 58.2402 26.7676 53.1963C29.9661 51.3375 33.1643 49.4789 36.3628 47.6201Z" fill="#DDE6FF"/>
<path d="M45.6168 46.4641C42.4184 48.3228 39.2201 50.1815 36.0216 52.0402C35.7 51.739 35.3853 51.4242 35.0781 51.0972C38.2766 49.2384 41.4749 47.3797 44.6734 45.521C44.9805 45.848 45.2953 46.1629 45.6168 46.4641Z" fill="#DDE6FF"/>
<path d="M45.6187 46.4639C45.9457 46.7702 46.2798 47.0624 46.62 47.339C43.4215 49.1977 40.2232 51.0564 37.0247 52.9151C36.6845 52.6386 36.3505 52.3464 36.0234 52.04C39.2219 50.1813 42.4202 48.3226 45.6187 46.4639Z" fill="#DDE6FF"/>
<path d="M46.6187 47.3389C47.2934 47.8874 47.9922 48.3743 48.7082 48.7877L39.1129 54.3638C38.3969 53.9505 37.6981 53.4635 37.0234 52.915C40.2219 51.0563 43.4202 49.1976 46.6187 47.3389Z" fill="#DDE6FF"/>
<path d="M48.6773 59.6729C54.1892 62.8552 59.1833 63.1518 62.7902 61.0579L53.1949 66.6341C49.588 68.7279 44.594 68.4313 39.082 65.249C41.9606 63.5762 45.7987 61.3457 48.6773 59.6729Z" fill="#DDE6FF"/>
<path d="M48.7085 48.7881C51.5883 50.4507 54.1978 50.6059 56.0826 49.5121L46.4873 55.0882C44.6025 56.1821 41.993 56.0269 39.1133 54.3642C41.9919 52.6914 45.83 50.4609 48.7085 48.7881Z" fill="#DDE6FF"/>
<path d="M36.3614 47.6202C33.163 49.4789 29.9648 51.3376 26.7664 53.1963C22.2022 46.3784 19.2862 38.2355 19.3067 30.9986C19.3245 24.7415 21.5341 20.3399 25.0975 18.2713L34.6925 12.6953C31.1291 14.7639 28.9195 19.1655 28.9018 25.4226C28.8812 32.6595 31.7972 40.8024 36.3614 47.6202Z" fill="#DDE6FF"/>
<path d="M38.3746 30.891C38.3606 35.8257 40.9591 41.5654 44.6748 45.5218C41.4763 47.3805 38.278 49.2392 35.0795 51.0979C31.3638 47.1415 28.7654 41.4018 28.7794 36.4672C28.7886 33.1981 29.9434 30.8982 31.8057 29.8174L41.4009 24.2412C39.5387 25.322 38.3839 27.6219 38.3746 30.891Z" fill="#DDE6FF"/>
<path d="M56.0855 49.5106L46.4902 55.0868C48.3509 54.0055 49.5046 51.7062 49.5139 48.4375L59.1092 42.8613C59.0999 46.13 57.9461 48.4293 56.0855 49.5106Z" fill="#DDE6FF"/>
<path d="M31.8047 29.8188L41.3999 24.2427C43.2852 23.1471 45.8961 23.3015 48.7779 24.9653L39.1827 30.5415C36.3008 28.8777 33.6899 28.7233 31.8047 29.8188Z" fill="#DDE6FF"/>
<path d="M39.1816 30.5415L48.7769 24.9653C54.5016 28.2705 59.1281 36.284 59.1095 42.8621L49.5142 48.4382C49.5329 41.8601 44.9063 33.8466 39.1816 30.5415Z" fill="#DDE6FF"/>
<path d="M25.0938 18.2738L34.6889 12.6977C38.2962 10.6014 43.2919 10.897 48.8058 14.0805L39.2104 19.6566C33.6965 16.4732 28.7009 16.1775 25.0938 18.2738Z" fill="#DDE6FF"/>
<path d="M19.1289 8.01255L28.7242 2.43639C33.8627 -0.549819 40.9792 -0.128587 48.8336 4.40617L39.2383 9.98233C31.3839 5.44758 24.2675 5.02634 19.1289 8.01255Z" fill="#DDE6FF"/>
<path d="M62.7951 61.0551L53.2001 66.6311C56.7612 64.5616 58.9692 60.1609 58.9869 53.906C59.0226 41.3155 50.17 25.9822 39.2129 19.6561L48.8079 14.0801C59.765 20.4062 68.6176 35.7394 68.5819 48.33C68.5642 54.5849 66.3562 58.9856 62.7951 61.0551Z" fill="#DDE6FF"/>
<path d="M39.2384 9.98225C54.844 18.9921 67.4549 40.8332 67.404 58.7672C67.3532 76.7013 54.6599 83.9347 39.0543 74.9248C23.4469 65.9139 10.836 44.0711 10.8869 26.137C10.9377 8.20298 23.631 0.971339 39.2384 9.98225ZM39.0817 65.2487C50.0389 71.5748 58.9492 66.497 58.9849 53.9064C59.0206 41.3158 50.1681 25.9826 39.211 19.6565C28.2538 13.3304 19.3433 18.4082 19.3077 30.9988C19.272 43.5894 28.1246 58.9226 39.0817 65.2487Z" fill="white" stroke="#DDE6FF" stroke-miterlimit="10"/>
<path d="M39.1812 30.541C44.9059 33.8462 49.5325 41.8597 49.5138 48.4378C49.4952 55.0179 44.8384 57.6697 39.1137 54.3645C33.3872 51.0583 28.7607 43.0469 28.7794 36.4667C28.798 29.8886 33.4548 27.2349 39.1812 30.541Z" fill="#2563EB" stroke="#DDE6FF" stroke-miterlimit="10"/>
<path d="M39.21 19.6566C50.1672 25.9827 59.0198 41.3159 58.9841 53.9065C58.9484 66.4971 50.0379 71.5749 39.0808 65.2488C28.1236 58.9227 19.2711 43.5894 19.3067 30.9989C19.3424 18.4083 28.2529 13.3305 39.21 19.6566ZM39.1116 54.3641C44.8362 57.6692 49.4928 55.0175 49.5115 48.4376C49.5301 41.8596 44.9037 33.8463 39.1792 30.5412C33.4529 27.2352 28.7962 29.8889 28.7775 36.4668C28.7589 43.0468 33.3853 51.0581 39.1116 54.3641Z" fill="white" stroke="#DDE6FF" stroke-miterlimit="10"/>
<path d="M68.7554 71.3174L59.1604 76.8935C64.2331 73.9455 67.3787 67.6769 67.4039 58.7672C67.4548 40.8332 54.8439 18.9922 39.2383 9.98227L48.8333 4.40625C64.4389 13.4161 77.0498 35.2572 76.9989 53.1912C76.9737 62.1009 73.8281 68.3695 68.7554 71.3174Z" fill="#DDE6FF"/>
<path d="M48.8334 4.40606C40.9792 -0.1286 33.8629 -0.549781 28.7245 2.43637L19.1295 8.01235C19.1458 8.00284 19.1627 7.99427 19.1791 7.98483C14.078 10.9206 10.9122 17.1992 10.8869 26.1368C10.836 44.0709 23.4469 65.9137 39.0543 74.9246C47.0057 79.5153 54.1996 79.8868 59.3518 76.7768C59.2879 76.8154 59.225 76.8558 59.1605 76.8933L68.7555 71.3172C73.8283 68.3693 76.9738 62.1007 76.9991 53.1911C77.0499 35.257 64.439 13.416 48.8334 4.40606Z" stroke="#333333"/>
<path d="M23.8352 54.1014L21.554 52.7758L21.5508 51.6265L23.8319 52.9521L23.8352 54.1014Z" fill="#DDE6FF"/>
<path d="M39.5669 42.4268L39.7788 43.6452C39.781 44.4182 39.3695 45.1332 38.7002 45.5197L23.8355 54.1018L23.8322 52.9525L23.8281 51.5136L39.5669 42.4268Z" fill="#DDE6FF"/>
<path d="M23.8321 52.9521L21.551 51.6264L21.5469 50.1875L23.828 51.5132L23.8321 52.9521Z" fill="#DDE6FF"/>
<path d="M23.828 51.5137L21.5469 50.1881L36.4116 41.6059C37.0809 41.2195 37.9059 41.2206 38.5742 41.609L39.5668 42.4269L23.828 51.5137Z" fill="white"/>
<path d="M3.34755 76.5852L1.06641 75.2596L11.293 57.5488L13.5741 58.8745L3.34755 76.5852Z" fill="white"/>
<path d="M18.5582 45.0448L20.8393 46.3704C18.9743 45.2866 16.3917 45.4393 13.5409 47.0852L11.2598 45.7596C14.1106 44.1137 16.6932 43.9609 18.5582 45.0448Z" fill="white"/>
<path d="M3.28115 53.009L1 51.6834L11.26 45.7598L13.5411 47.0854L3.28115 53.009Z" fill="white"/>
<path d="M13.5432 47.0853C19.2094 43.8139 23.8161 46.4414 23.8345 52.9523C23.853 59.4609 19.2763 67.3905 13.61 70.6619L3.35004 76.5855L13.5766 58.8747L3.2832 53.0089L13.5432 47.0853Z" fill="#FFBC47"/>
<path d="M39.779 43.5946C39.7767 42.797 39.3515 42.0605 38.6619 41.6597L38.6186 41.6346C37.9231 41.2304 37.0645 41.2292 36.3679 41.6314L23.1905 49.2394C22.6707 47.9304 21.8559 46.9568 20.8218 46.3615C20.8276 46.3648 20.8338 46.3674 20.8396 46.3708L18.5584 45.0452C16.6934 43.9614 14.1108 44.114 11.26 45.76L1 51.6836L3.28115 53.0092L11.2822 57.5688L1.06684 75.2602L3.34799 76.5858L13.608 70.6622C18.9523 67.5768 23.3254 60.3479 23.7898 54.0753L23.8357 54.102L38.6564 45.5453C39.353 45.1431 39.7812 44.399 39.779 43.5946Z" stroke="#333333"/>
</g>
<defs>
<clipPath id="clip0_343_207">
<rect width="78" height="80" fill="white"/>
</clipPath>
</defs>
</svg>
