<svg width="35" height="35" viewBox="0 0 35 35" fill="none" xmlns="http://www.w3.org/2000/svg">
<g clip-path="url(#clip0_21_80)">
<path d="M27.2962 4.20152C24.5902 1.39922 21.0436 -0.000768909 17.4971 3.16815e-07C13.9528 0.000769543 10.4078 1.40153 7.70328 4.20152C2.29341 9.80379 2.29341 18.8872 7.70328 24.4895L17.4994 34.6342L27.2962 24.4895C32.7068 18.8872 32.7068 9.80379 27.2962 4.20152Z" fill="#1877F2"/>
<path d="M17.2319 5.83768C13.1846 5.97069 9.77886 9.26055 9.49893 13.3211C9.20296 17.617 12.2597 21.247 16.3015 21.8572V16.0313H15.0069C14.4246 16.0313 13.953 15.5574 13.953 14.972C13.953 14.3868 14.4246 13.9128 15.0069 13.9128H16.3007V12.5028C16.3007 10.1683 17.4325 9.14366 19.3631 9.14366C19.6494 9.14366 19.8941 9.15011 20.1018 9.16058C20.6119 9.18557 21.0074 9.61282 21.0074 10.1263C21.0074 10.6608 20.5766 11.0937 20.0449 11.0937H19.6904C18.8706 11.0937 18.5842 11.8749 18.5842 12.7552V13.9136H20.0841C20.5582 13.9136 20.9208 14.3384 20.8486 14.8092L20.762 15.3743C20.7033 15.7532 20.3793 16.0329 19.9975 16.0329H18.5842V21.875C22.5009 21.3405 25.5208 17.9757 25.5208 13.895C25.5208 9.35325 21.7838 5.68935 17.2319 5.83768Z" fill="white"/>
<circle cx="26" cy="4" r="4" fill="#FF0000"/>
</g>
<defs>
<clipPath id="clip0_21_80">
<rect width="35" height="35" fill="white"/>
</clipPath>
</defs>
</svg>
