<svg width="35" height="35" viewBox="0 0 35 35" fill="none" xmlns="http://www.w3.org/2000/svg">
<g clip-path="url(#clip0_21_37)">
<mask id="mask0_21_37" style="mask-type:luminance" maskUnits="userSpaceOnUse" x="3" y="0" width="29" height="35">
<path d="M31.3542 0H3.64587V35H31.3542V0Z" fill="white"/>
</mask>
<g mask="url(#mask0_21_37)">
<path d="M27.2962 4.20152C24.5902 1.39922 21.0436 -0.000768909 17.4971 3.16815e-07C13.9528 0.000769543 10.4078 1.40153 7.70328 4.20152C2.29341 9.80379 2.29341 18.8872 7.70328 24.4895L17.4994 34.6342L27.2962 24.4895C32.7068 18.8872 32.7068 9.80379 27.2962 4.20152Z" fill="#0077B5"/>
<path d="M27.2962 4.20152C24.5902 1.39922 21.0436 -0.000768909 17.4971 3.16815e-07C13.9528 0.000769543 10.4078 1.40153 7.70328 4.20152C2.29341 9.80379 2.29341 18.8872 7.70328 24.4895L17.4994 34.6342L27.2962 24.4895C32.7068 18.8872 32.7068 9.80379 27.2962 4.20152Z" fill="#316FF6"/>
<path d="M25.5209 13.8542C25.5209 18.284 21.9299 21.875 17.5001 21.875C13.0703 21.875 9.47925 18.284 9.47925 13.8542C9.47925 9.42439 13.0703 5.83334 17.5001 5.83334C21.9299 5.83334 25.5209 9.42439 25.5209 13.8542Z" fill="white"/>
<path fill-rule="evenodd" clip-rule="evenodd" d="M13.4703 8.93228C13.367 8.93228 13.2748 9.00393 13.2393 9.11166L12.6082 11.0287C12.5883 11.0893 12.5781 11.1528 12.5781 11.2166V11.9792C12.5781 12.4104 12.8928 12.7604 13.2811 12.7604C13.6694 12.7604 13.9844 12.4104 13.9844 11.9792C13.9844 12.4107 14.2991 12.7604 14.6874 12.7604C15.0757 12.7604 15.3907 12.4104 15.3907 11.9792C15.3907 12.4107 15.7054 12.7604 16.0937 12.7604C16.482 12.7604 16.7964 12.411 16.797 11.9797C16.797 12.411 17.1117 12.7604 17.5 12.7604C17.8883 12.7604 18.203 12.4104 18.203 11.9792C18.203 12.4107 18.5181 12.7604 18.9063 12.7604C19.2946 12.7604 19.609 12.411 19.6093 11.9797C19.6096 12.411 19.9243 12.7604 20.3125 12.7604C20.7009 12.7604 21.0156 12.4104 21.0156 11.9792C21.0156 12.4107 21.3303 12.7604 21.7188 12.7604C22.1072 12.7604 22.4219 12.4104 22.4219 11.9792V11.2166C22.4219 11.1528 22.4117 11.0893 22.3918 11.0287L21.7607 9.11193C21.7252 9.00393 21.6331 8.93228 21.5297 8.93228H13.4703Z" fill="#316FF6"/>
<path fill-rule="evenodd" clip-rule="evenodd" d="M13.6719 13.0967V15.2213H12.9883C12.952 15.2213 12.9172 15.2358 12.8916 15.2614C12.866 15.287 12.8516 15.3218 12.8516 15.358V15.6316C12.8516 15.6677 12.866 15.7026 12.8916 15.7281C12.9172 15.7538 12.952 15.7682 12.9883 15.7682H22.0118C22.048 15.7682 22.0828 15.7538 22.1083 15.7281C22.134 15.7026 22.1484 15.6677 22.1484 15.6316V15.358C22.1484 15.3218 22.134 15.287 22.1083 15.2614C22.0828 15.2358 22.048 15.2213 22.0118 15.2213H21.3281V13.0967C21.2136 13.0512 21.1079 12.9862 21.0156 12.9045C20.9446 12.9669 20.8658 13.0199 20.7813 13.062V15.2213H14.2188V13.062C14.1342 13.0199 14.0554 12.9669 13.9844 12.9045C13.8925 12.9852 13.7875 13.0508 13.6719 13.0967ZM20.7813 12.5616C20.8044 12.5385 20.8263 12.5136 20.8469 12.487H20.7813V12.5616ZM21.1843 12.487C21.2257 12.5404 21.2742 12.5881 21.3281 12.6289V12.487H21.1843ZM13.6719 12.6289C13.7263 12.5887 13.7748 12.5409 13.8157 12.487H13.6719V12.6289ZM14.1531 12.487H14.2188V12.5616C14.1954 12.5381 14.1735 12.5132 14.1531 12.487ZM13.2617 16.3151C13.2255 16.3151 13.1907 16.3295 13.165 16.3552C13.1394 16.3807 13.125 16.4156 13.125 16.4517V18.5026C13.125 18.5751 13.1538 18.6446 13.2051 18.696C13.2564 18.7472 13.3259 18.776 13.3984 18.776H21.6016C21.674 18.776 21.7436 18.7472 21.7949 18.696C21.8461 18.6446 21.875 18.5751 21.875 18.5026V16.4517C21.875 16.4156 21.8606 16.3807 21.8349 16.3552C21.8094 16.3295 21.7745 16.3151 21.7382 16.3151H13.2617Z" fill="#316FF6"/>
<path d="M14.7656 14.5378C14.7656 14.5015 14.78 14.4667 14.8057 14.4411C14.8313 14.4154 14.8661 14.401 14.9023 14.401H15.7227C15.7589 14.401 15.7937 14.4154 15.8193 14.4411C15.845 14.4667 15.8594 14.5015 15.8594 14.5378V15.0847C15.8594 15.1209 15.845 15.1557 15.8193 15.1812C15.7937 15.2069 15.7589 15.2213 15.7227 15.2213H14.9023C14.8661 15.2213 14.8313 15.2069 14.8057 15.1812C14.78 15.1557 14.7656 15.1209 14.7656 15.0847V14.5378Z" fill="#316FF6"/>
<path d="M15.3125 14.8111C15.3125 14.7749 15.3269 14.7401 15.3525 14.7146C15.3782 14.6889 15.413 14.6745 15.4492 14.6745H16.2695C16.3058 14.6745 16.3406 14.6889 16.3662 14.7146C16.3918 14.7401 16.4063 14.7749 16.4063 14.8111V15.0847C16.4063 15.1209 16.3918 15.1557 16.3662 15.1812C16.3406 15.2069 16.3058 15.2213 16.2695 15.2213H15.4492C15.413 15.2213 15.3782 15.2069 15.3525 15.1812C15.3269 15.1557 15.3125 15.1209 15.3125 15.0847V14.8111ZM17.5 14.8111C17.5 14.9199 17.4568 15.0243 17.3799 15.1012C17.3029 15.1782 17.1986 15.2213 17.0898 15.2213C16.9811 15.2213 16.8767 15.1782 16.7998 15.1012C16.7229 15.0243 16.6797 14.9199 16.6797 14.8111C16.6797 14.7025 16.7229 14.5981 16.7998 14.5212C16.8767 14.4442 16.9811 14.401 17.0898 14.401C17.1986 14.401 17.3029 14.4442 17.3799 14.5212C17.4568 14.5981 17.5 14.7025 17.5 14.8111Z" fill="#316FF6"/>
</g>
<circle cx="26" cy="4" r="4" fill="#FF0000"/>
</g>
<defs>
<clipPath id="clip0_21_37">
<rect width="35" height="35" fill="white"/>
</clipPath>
</defs>
</svg>
