<svg width="35" height="35" viewBox="0 0 19 24" fill="none" xmlns="http://www.w3.org/2000/svg">
<g clip-path="url(#clip0_331_12)">
<path d="M16.2174 2.88104C14.3618 0.959467 11.9299 -0.000527252 9.49796 2.17244e-07C7.06762 0.000527687 4.63676 0.961051 2.78222 2.88104C-0.927406 6.7226 -0.927406 12.9512 2.78222 16.7928L9.49954 23.7492L16.2174 16.7928C19.9275 12.9512 19.9275 6.7226 16.2174 2.88104Z" fill="#0077B5"/>
<path d="M16.2174 2.88104C14.3618 0.959467 11.9299 -0.000527252 9.49796 2.17244e-07C7.06762 0.000527687 4.63676 0.961051 2.78222 2.88104C-0.927406 6.7226 -0.927406 12.9512 2.78222 16.7928L9.49954 23.7492L16.2174 16.7928C19.9275 12.9512 19.9275 6.7226 16.2174 2.88104Z" fill="#316FF6"/>
<path d="M15 9.5C15 12.5376 12.5376 15 9.5 15C6.46243 15 4 12.5376 4 9.5C4 6.46243 6.46243 4 9.5 4C12.5376 4 15 6.46243 15 9.5Z" fill="white"/>
<path fill-rule="evenodd" clip-rule="evenodd" d="M6.73681 6.125C6.66594 6.125 6.60275 6.17413 6.57838 6.248L6.14563 7.56256C6.13196 7.60413 6.125 7.64762 6.125 7.69138V8.21431C6.125 8.51 6.34081 8.75 6.60706 8.75C6.87331 8.75 7.08931 8.51 7.08931 8.21431C7.08931 8.51019 7.30512 8.75 7.57137 8.75C7.83762 8.75 8.05362 8.51 8.05362 8.21431C8.05362 8.51019 8.26944 8.75 8.53569 8.75C8.80194 8.75 9.01756 8.51038 9.01794 8.21469C9.01794 8.51038 9.23375 8.75 9.5 8.75C9.76625 8.75 9.98206 8.51 9.98206 8.21431C9.98206 8.51019 10.1981 8.75 10.4643 8.75C10.7306 8.75 10.9462 8.51038 10.9464 8.21469C10.9466 8.51038 11.1624 8.75 11.4286 8.75C11.6949 8.75 11.9107 8.51 11.9107 8.21431C11.9107 8.51019 12.1265 8.75 12.3929 8.75C12.6592 8.75 12.875 8.51 12.875 8.21431V7.69138C12.875 7.64762 12.868 7.60413 12.8544 7.56256L12.4216 6.24819C12.3973 6.17413 12.3341 6.125 12.2632 6.125H6.73681Z" fill="#316FF6"/>
<path fill-rule="evenodd" clip-rule="evenodd" d="M6.875 8.98062V10.4375H6.40625C6.38139 10.4375 6.35754 10.4474 6.33996 10.465C6.32238 10.4825 6.3125 10.5064 6.3125 10.5312V10.7188C6.3125 10.7436 6.32238 10.7675 6.33996 10.785C6.35754 10.8026 6.38139 10.8125 6.40625 10.8125H12.5938C12.6186 10.8125 12.6425 10.8026 12.66 10.785C12.6776 10.7675 12.6875 10.7436 12.6875 10.7188V10.5312C12.6875 10.5064 12.6776 10.4825 12.66 10.465C12.6425 10.4474 12.6186 10.4375 12.5938 10.4375H12.125V8.98062C12.0465 8.9494 11.974 8.9048 11.9107 8.84881C11.862 8.8916 11.808 8.92791 11.75 8.95681V10.4375H7.25V8.95681C7.192 8.92791 7.13798 8.8916 7.08931 8.84881C7.02631 8.90413 6.95431 8.94912 6.875 8.98062ZM11.75 8.61369C11.7659 8.59781 11.7809 8.58075 11.795 8.5625H11.75V8.61369ZM12.0264 8.5625C12.0548 8.59915 12.088 8.63187 12.125 8.65981V8.5625H12.0264ZM6.875 8.65981C6.91234 8.63224 6.94555 8.59947 6.97363 8.5625H6.875V8.65981ZM7.205 8.5625H7.25V8.61369C7.23398 8.59755 7.21895 8.58046 7.205 8.5625ZM6.59375 11.1875C6.56889 11.1875 6.54504 11.1974 6.52746 11.215C6.50988 11.2325 6.5 11.2564 6.5 11.2812V12.6875C6.5 12.7372 6.51975 12.7849 6.55492 12.8201C6.59008 12.8552 6.63777 12.875 6.6875 12.875H12.3125C12.3622 12.875 12.4099 12.8552 12.4451 12.8201C12.4802 12.7849 12.5 12.7372 12.5 12.6875V11.2812C12.5 11.2564 12.4901 11.2325 12.4725 11.215C12.455 11.1974 12.4311 11.1875 12.4062 11.1875H6.59375Z" fill="#316FF6"/>
<path d="M7.625 9.96875C7.625 9.94389 7.63488 9.92004 7.65246 9.90246C7.67004 9.88488 7.69389 9.875 7.71875 9.875H8.28125C8.30611 9.875 8.32996 9.88488 8.34754 9.90246C8.36512 9.92004 8.375 9.94389 8.375 9.96875V10.3438C8.375 10.3686 8.36512 10.3925 8.34754 10.41C8.32996 10.4276 8.30611 10.4375 8.28125 10.4375H7.71875C7.69389 10.4375 7.67004 10.4276 7.65246 10.41C7.63488 10.3925 7.625 10.3686 7.625 10.3438V9.96875Z" fill="#316FF6"/>
<path d="M8 10.1562C8 10.1314 8.00988 10.1075 8.02746 10.09C8.04504 10.0724 8.06889 10.0625 8.09375 10.0625H8.65625C8.68111 10.0625 8.70496 10.0724 8.72254 10.09C8.74012 10.1075 8.75 10.1314 8.75 10.1562V10.3438C8.75 10.3686 8.74012 10.3925 8.72254 10.41C8.70496 10.4276 8.68111 10.4375 8.65625 10.4375H8.09375C8.06889 10.4375 8.04504 10.4276 8.02746 10.41C8.00988 10.3925 8 10.3686 8 10.3438V10.1562ZM9.5 10.1562C9.5 10.2308 9.47037 10.3024 9.41762 10.3551C9.36488 10.4079 9.29334 10.4375 9.21875 10.4375C9.14416 10.4375 9.07262 10.4079 9.01988 10.3551C8.96713 10.3024 8.9375 10.2308 8.9375 10.1562C8.9375 10.0817 8.96713 10.0101 9.01988 9.95738C9.07262 9.90463 9.14416 9.875 9.21875 9.875C9.29334 9.875 9.36488 9.90463 9.41762 9.95738C9.47037 10.0101 9.5 10.0817 9.5 10.1562Z" fill="#316FF6"/>
</g>
<defs>
<clipPath id="clip0_331_12">
<rect width="19" height="24" fill="white"/>
</clipPath>
</defs>
</svg>
