<svg width="60" height="60" viewBox="0 0 19 24" fill="none" xmlns="http://www.w3.org/2000/svg">
<path d="M16.2174 2.88104C14.3618 0.959467 11.9299 -0.000527252 9.49796 2.17244e-07C7.06762 0.000527687 4.63676 0.961051 2.78222 2.88104C-0.927405 6.7226 -0.927405 12.9512 2.78222 16.7928L9.49954 23.7492L16.2174 16.7928C19.9275 12.9512 19.9275 6.7226 16.2174 2.88104Z" fill="#1877F2"/>
<path d="M9.31621 4.00298C6.54087 4.09419 4.20553 6.35009 4.01358 9.13445C3.81063 12.0802 5.90671 14.5694 8.6782 14.9878V10.9929H7.79049C7.39118 10.9929 7.06778 10.6679 7.06778 10.2665C7.06778 9.86522 7.39118 9.54019 7.79049 9.54019H8.67765V8.57337C8.67765 6.97252 9.45371 6.26994 10.7776 6.26994C10.9739 6.26994 11.1417 6.27436 11.2841 6.28154C11.6339 6.29868 11.9051 6.59165 11.9051 6.94378C11.9051 7.31027 11.6097 7.60711 11.2451 7.60711H11.002C10.4399 7.60711 10.2435 8.14276 10.2435 8.74639V9.54074H11.272C11.5971 9.54074 11.8457 9.83205 11.7962 10.1549L11.7368 10.5424C11.6966 10.8022 11.4744 10.994 11.2126 10.994H10.2435V15C12.9292 14.6335 15 12.3262 15 9.52803C15 6.41366 12.4375 3.90127 9.31621 4.00298Z" fill="white"/>
</svg>
