<svg width="35" height="35" viewBox="0 0 35 35" fill="none" xmlns="http://www.w3.org/2000/svg">
<g clip-path="url(#clip0_21_4)">
<mask id="mask0_21_4" style="mask-type:luminance" maskUnits="userSpaceOnUse" x="3" y="0" width="29" height="35">
<path d="M31.3542 0H3.64587V35H31.3542V0Z" fill="white"/>
</mask>
<g mask="url(#mask0_21_4)">
<path d="M27.2962 4.20152C24.5902 1.39922 21.0436 -0.000768909 17.4971 3.16815e-07C13.9528 0.000769543 10.4078 1.40153 7.70328 4.20152C2.29341 9.80379 2.29341 18.8872 7.70328 24.4895L17.4994 34.6342L27.2962 24.4895C32.7068 18.8872 32.7068 9.80379 27.2962 4.20152Z" fill="#34A853"/>
<path d="M25.5209 13.8542C25.5209 18.284 21.9299 21.875 17.5001 21.875C13.0703 21.875 9.47925 18.284 9.47925 13.8542C9.47925 9.42439 13.0703 5.83334 17.5001 5.83334C21.9299 5.83334 25.5209 9.42439 25.5209 13.8542Z" fill="white"/>
<mask id="mask1_21_4" style="mask-type:luminance" maskUnits="userSpaceOnUse" x="10" y="8" width="15" height="11">
<path d="M24.0625 8.75H10.9375V18.9583H24.0625V8.75Z" fill="white"/>
</mask>
<g mask="url(#mask1_21_4)">
<path d="M21.379 15.6747C21.379 15.8484 21.2283 15.9908 21.0443 15.9908H13.9582C13.7741 15.9908 13.6234 15.8484 13.6234 15.6747V9.06598C13.6234 8.89228 13.7741 8.75 13.9582 8.75H21.0444C21.2286 8.75 21.3793 8.89228 21.3793 9.06598L21.379 15.6747Z" fill="#0C9D58"/>
<path opacity="0.2" d="M21.3777 10.4492L18.7219 10.1243L21.3777 10.8016V10.4492Z" fill="#004D40"/>
<path opacity="0.2" d="M17.6281 9.09455L13.6063 10.8017L18.0513 9.26369V9.25949C17.9731 9.10027 17.7828 9.02598 17.6281 9.09455Z" fill="#004D40"/>
<path opacity="0.2" d="M21.0444 8.75H13.9582C13.7741 8.75 13.6234 8.89228 13.6234 9.06598V9.13684C13.6234 8.96314 13.7741 8.82085 13.9582 8.82085H21.0444C21.2286 8.82085 21.3793 8.96314 21.3793 9.13684V9.06598C21.379 8.89228 21.2286 8.75 21.0444 8.75Z" fill="white"/>
<path d="M15.3419 15.4718C15.2941 15.6415 15.3896 15.8146 15.5543 15.8565L22.1177 17.5346C22.2823 17.5764 22.4563 17.4719 22.504 17.3021L24.0501 11.8168C24.0979 11.647 24.0024 11.4739 23.8376 11.432L17.2744 9.75403C17.1097 9.71212 16.9358 9.81669 16.8881 9.9864L15.3419 15.4718Z" fill="#EA4335"/>
<path opacity="0.2" d="M22.5701 13.7744L22.9153 15.7679L22.5701 16.9932V13.7744Z" fill="#3E2723"/>
<path opacity="0.2" d="M18.7533 10.2055L19.0626 10.2845L19.2545 11.5149L18.7533 10.2055Z" fill="#3E2723"/>
<path opacity="0.2" d="M23.8389 11.432L17.2756 9.75403C17.1109 9.71212 16.937 9.81669 16.8893 9.9864L15.3431 15.4718C15.3405 15.4809 15.3399 15.4903 15.3381 15.4993L16.8727 10.0555C16.9206 9.88583 17.0945 9.78126 17.2589 9.82317L23.8223 11.5012C23.9779 11.5408 24.0704 11.6979 24.0396 11.8585L24.0514 11.8168C24.0991 11.647 24.0036 11.4739 23.8389 11.432Z" fill="white"/>
<path d="M20.5106 14.7964C20.5737 14.9616 20.4944 15.1419 20.3343 15.1973L13.4086 17.5936C13.2483 17.649 13.0655 17.5593 13.0024 17.3941L10.9592 12.0577C10.8961 11.8926 10.9754 11.7122 11.1355 11.6568L18.0613 9.26057C18.2215 9.20514 18.4043 9.29486 18.4673 9.45998L20.5106 14.7964Z" fill="#FFC107"/>
<path opacity="0.2" d="M10.9856 12.1245C10.9224 11.9593 11.0018 11.779 11.1619 11.7235L18.0876 9.32711C18.2461 9.27224 18.4262 9.35967 18.4914 9.52137L18.4675 9.45929C18.4042 9.29415 18.2215 9.20445 18.0614 9.25986L11.1356 11.6563C10.9753 11.7117 10.896 11.8921 10.9593 12.0572L13.0025 17.3937L13.0052 17.3988L10.9856 12.1245Z" fill="white"/>
<path d="M22.5721 18.6396C22.5721 18.815 22.421 18.9585 22.2366 18.9585H12.7656C12.5811 18.9585 12.4301 18.815 12.4301 18.6396V11.834C12.4301 11.6586 12.5811 11.515 12.7656 11.515H22.2366C22.421 11.515 22.5721 11.6586 22.5721 11.834V18.6396Z" fill="#4285F4"/>
<path d="M20.7639 14.2085H17.9301V13.4996H20.7639C20.8463 13.4996 20.913 13.563 20.913 13.6413V14.0666C20.913 14.1449 20.8463 14.2085 20.7639 14.2085ZM20.7639 16.9022H17.9301V16.1933H20.7639C20.8463 16.1933 20.913 16.2568 20.913 16.335V16.7603C20.913 16.8388 20.8463 16.9022 20.7639 16.9022ZM21.2113 15.5552H17.9301V14.8463H21.2113C21.2937 14.8463 21.3603 14.9097 21.3603 14.988V15.4133C21.3603 15.4919 21.2937 15.5552 21.2113 15.5552Z" fill="white"/>
<path opacity="0.2" d="M22.2366 18.8872H12.7656C12.5811 18.8872 12.4301 18.7435 12.4301 18.5681V18.639C12.4301 18.8144 12.5811 18.958 12.7656 18.958H22.2366C22.421 18.958 22.5721 18.8144 22.5721 18.639V18.5681C22.5721 18.7435 22.421 18.8872 22.2366 18.8872Z" fill="#1A237E"/>
<path opacity="0.2" d="M12.7656 11.5859H22.2366C22.421 11.5859 22.5721 11.7295 22.5721 11.9049V11.834C22.5721 11.6586 22.421 11.515 22.2366 11.515H12.7656C12.5811 11.515 12.4301 11.6586 12.4301 11.834V11.9049C12.4301 11.7295 12.5811 11.5859 12.7656 11.5859Z" fill="white"/>
<path d="M15.3935 14.9175V15.5568H16.3586C16.2789 15.9463 15.9186 16.2288 15.3935 16.2288C14.8077 16.2288 14.3326 15.7577 14.3326 15.2008C14.3326 14.6439 14.8077 14.1729 15.3935 14.1729C15.6574 14.1729 15.8936 14.2591 16.0801 14.4281L16.5909 13.943C16.2807 13.6681 15.8762 13.4996 15.3933 13.4996C14.405 13.4996 13.6035 14.2612 13.6035 15.201C13.6035 16.1407 14.4048 16.9024 15.3933 16.9024C16.427 16.9024 17.107 16.2116 17.107 15.2396C17.107 15.1282 17.0962 15.0208 17.0787 14.9175H15.3935Z" fill="white"/>
<g opacity="0.2">
<path d="M15.4121 15.5568V15.6276H16.3592C16.3662 15.6043 16.3722 15.5807 16.3772 15.5568H15.4121Z" fill="#1A237E"/>
<path d="M15.4132 16.9024C14.4373 16.9024 13.6443 16.1598 13.6244 15.2364C13.6242 15.2482 13.6234 15.26 13.6234 15.2718C13.6234 16.2115 14.4246 16.9732 15.4132 16.9732C16.4468 16.9732 17.1269 16.2824 17.1269 15.3104C17.1269 15.3027 17.1258 15.2954 17.1258 15.2877C17.1036 16.2343 16.4298 16.9024 15.4132 16.9024ZM16.0998 14.4283C15.9133 14.2595 15.6769 14.173 15.4132 14.173C14.8274 14.173 14.3523 14.6441 14.3523 15.2009C14.3523 15.213 14.3537 15.2245 14.3541 15.2364C14.3739 14.6952 14.8398 14.2439 15.4132 14.2439C15.6771 14.2439 15.9133 14.3302 16.0998 14.4991L16.6478 13.9786C16.635 13.9672 16.6208 13.9571 16.6075 13.946L16.0998 14.4283Z" fill="#1A237E"/>
</g>
<path opacity="0.2" d="M20.913 14.1379V14.0671C20.913 14.1453 20.8463 14.2088 20.7639 14.2088H17.9301V14.2796H20.7639C20.8463 14.2798 20.913 14.2164 20.913 14.1379ZM20.7639 16.9027H17.9301V16.9735H20.7639C20.8463 16.9735 20.913 16.9101 20.913 16.8318V16.7611C20.913 16.8392 20.8463 16.9027 20.7639 16.9027ZM21.2113 15.5557H17.9301V15.6266H21.2113C21.2937 15.6266 21.3603 15.5632 21.3603 15.4849V15.414C21.3603 15.4923 21.2937 15.5557 21.2113 15.5557Z" fill="#1A237E"/>
<path d="M23.8376 11.4319L21.3779 10.803V9.06598C21.3779 8.89228 21.2272 8.75 21.043 8.75H13.9568C13.7727 8.75 13.622 8.89228 13.622 9.06598V10.7962L11.1356 11.6565C10.9753 11.7119 10.896 11.8923 10.9593 12.0574L12.4289 15.896V18.6393C12.4289 18.8147 12.58 18.9583 12.7645 18.9583H22.2354C22.42 18.9583 22.5711 18.8147 22.5711 18.6393V17.0644L24.0502 11.8167C24.0979 11.647 24.0024 11.4738 23.8376 11.4319Z" fill="url(#paint0_radial_21_4)"/>
</g>
</g>
<circle cx="26" cy="4" r="4" fill="#FF0000"/>
</g>
<defs>
<radialGradient id="paint0_radial_21_4" cx="0" cy="0" r="1" gradientUnits="userSpaceOnUse" gradientTransform="translate(13.8955 9.57706) scale(12.7639 12.1337)">
<stop stop-color="white" stop-opacity="0.1"/>
<stop offset="1" stop-color="white" stop-opacity="0"/>
</radialGradient>
<clipPath id="clip0_21_4">
<rect width="35" height="35" fill="white"/>
</clipPath>
</defs>
</svg>
