<svg width="40" height="40" viewBox="0 0 19 24" fill="none" xmlns="http://www.w3.org/2000/svg">
<g clip-path="url(#clip0_333_35)">
<path d="M16.2174 2.88104C14.3618 0.959467 11.9299 -0.000527252 9.49796 2.17244e-07C7.06762 0.000527687 4.63676 0.961051 2.78222 2.88104C-0.927406 6.7226 -0.927406 12.9512 2.78222 16.7928L9.49954 23.7492L16.2174 16.7928C19.9275 12.9512 19.9275 6.7226 16.2174 2.88104Z" fill="#34A853"/>
<path d="M15 9.5C15 12.5376 12.5376 15 9.5 15C6.46243 15 4 12.5376 4 9.5C4 6.46243 6.46243 4 9.5 4C12.5376 4 15 6.46243 15 9.5Z" fill="white"/>
<g clip-path="url(#clip1_333_35)">
<path d="M12.1599 10.7484C12.1599 10.8675 12.0566 10.9651 11.9304 10.9651H7.07137C6.94511 10.9651 6.8418 10.8675 6.8418 10.7484V6.21667C6.8418 6.09756 6.94511 6 7.07137 6H11.9305C12.0568 6 12.1601 6.09756 12.1601 6.21667V10.7484H12.1599Z" fill="#0C9D58"/>
<path opacity="0.2" d="M12.159 7.16519L10.3379 6.94238L12.159 7.40681V7.16519Z" fill="#004D40"/>
<path opacity="0.2" d="M9.58786 6.23627L6.83008 7.40688L9.87803 6.35225V6.34937C9.82445 6.24019 9.69393 6.18925 9.58786 6.23627Z" fill="#004D40"/>
<path opacity="0.2" d="M11.9305 6H7.07137C6.94511 6 6.8418 6.09756 6.8418 6.21667V6.26526C6.8418 6.14615 6.94511 6.04858 7.07137 6.04858H11.9305C12.0568 6.04858 12.1601 6.14615 12.1601 6.26526V6.21667C12.1599 6.09756 12.0568 6 11.9305 6Z" fill="white"/>
<path d="M8.02019 10.6092C7.98736 10.7256 8.05289 10.8443 8.16582 10.873L12.6664 12.0237C12.7793 12.0524 12.8986 11.9807 12.9313 11.8643L13.9915 8.10291C14.0243 7.98654 13.9588 7.86782 13.8458 7.83909L9.3453 6.68847C9.23237 6.65973 9.11311 6.73144 9.08041 6.84781L8.02019 10.6092Z" fill="#EA4335"/>
<path opacity="0.2" d="M12.9766 9.44531L13.2133 10.8123L12.9766 11.6525V9.44531Z" fill="#3E2723"/>
<path opacity="0.2" d="M10.3594 6.99805L10.5715 7.05225L10.7031 7.89595L10.3594 6.99805Z" fill="#3E2723"/>
<path opacity="0.2" d="M13.8467 7.83909L9.34612 6.68847C9.23319 6.65973 9.11393 6.73144 9.08123 6.84781L8.02101 10.6092C8.01923 10.6155 8.01881 10.6219 8.01758 10.6281L9.06983 6.89521C9.10267 6.77885 9.22192 6.70714 9.33471 6.73588L13.8353 7.8865C13.942 7.91367 14.0054 8.02142 13.9843 8.13152L13.9924 8.10291C14.0251 7.98654 13.9596 7.86782 13.8467 7.83909Z" fill="white"/>
<path d="M11.5644 10.1461C11.6077 10.2594 11.5533 10.383 11.4435 10.421L6.69444 12.0642C6.58453 12.1022 6.45923 12.0407 6.41596 11.9274L5.01488 8.26817C4.9716 8.15493 5.02601 8.03125 5.13578 7.99324L9.88486 6.35011C9.99477 6.3121 10.1201 6.37362 10.1633 6.48685L11.5644 10.1461Z" fill="#FFC107"/>
<path opacity="0.2" d="M5.03295 8.31391C4.98967 8.20068 5.04408 8.077 5.15385 8.03899L9.90293 6.39573C10.0116 6.35811 10.1351 6.41806 10.1798 6.52894L10.1634 6.48637C10.12 6.37313 9.99471 6.31162 9.88494 6.34962L5.13585 7.99289C5.02594 8.03089 4.97154 8.15457 5.01495 8.26781L6.41603 11.9271C6.41644 11.9283 6.41727 11.9293 6.41782 11.9306L5.03295 8.31391Z" fill="white"/>
<path d="M12.978 12.7814C12.978 12.9017 12.8744 13.0001 12.7479 13.0001H6.25356C6.12703 13.0001 6.02344 12.9017 6.02344 12.7814V8.11476C6.02344 7.99447 6.12703 7.896 6.25356 7.896H12.7479C12.8744 7.896 12.978 7.99447 12.978 8.11476V12.7814Z" fill="#4285F4"/>
<path d="M11.7381 9.74295H9.79492V9.25684H11.7381C11.7946 9.25684 11.8404 9.30033 11.8404 9.35401V9.64564C11.8404 9.69932 11.7946 9.74295 11.7381 9.74295ZM11.7381 11.5901H9.79492V11.104H11.7381C11.7946 11.104 11.8404 11.1475 11.8404 11.2011V11.4928C11.8404 11.5466 11.7946 11.5901 11.7381 11.5901ZM12.0449 10.6664H9.79492V10.1803H12.0449C12.1014 10.1803 12.1471 10.2238 12.1471 10.2775V10.5691C12.1471 10.623 12.1014 10.6664 12.0449 10.6664Z" fill="white"/>
<path opacity="0.2" d="M12.7479 12.9512H6.25356C6.12703 12.9512 6.02344 12.8527 6.02344 12.7324V12.781C6.02344 12.9013 6.12703 12.9998 6.25356 12.9998H12.7479C12.8744 12.9998 12.978 12.9013 12.978 12.781V12.7324C12.978 12.8527 12.8744 12.9512 12.7479 12.9512Z" fill="#1A237E"/>
<path opacity="0.2" d="M6.25356 7.94458H12.7479C12.8744 7.94458 12.978 8.04306 12.978 8.16334V8.11476C12.978 7.99447 12.8744 7.896 12.7479 7.896H6.25356C6.12703 7.896 6.02344 7.99447 6.02344 8.11476V8.16334C6.02344 8.04306 6.12703 7.94458 6.25356 7.94458Z" fill="white"/>
<path d="M8.05555 10.2291V10.6675H8.71734C8.66266 10.9346 8.41564 11.1283 8.05555 11.1283C7.65383 11.1283 7.32808 10.8053 7.32808 10.4234C7.32808 10.0415 7.65383 9.71852 8.05555 9.71852C8.23649 9.71852 8.39847 9.77769 8.52638 9.89353V9.89379L8.87658 9.56088C8.6639 9.37242 8.38651 9.25684 8.05541 9.25684C7.37768 9.25684 6.82812 9.77912 6.82812 10.4235C6.82812 11.0679 7.37754 11.5902 8.05541 11.5902C8.76419 11.5902 9.23049 11.1165 9.23049 10.45C9.23049 10.3736 9.22307 10.3 9.21112 10.2291H8.05555Z" fill="white"/>
<g opacity="0.2">
<path d="M8.06836 10.6675V10.7161H8.71779C8.7226 10.7001 8.72672 10.6839 8.73016 10.6675H8.06836Z" fill="#1A237E"/>
<path d="M8.06908 11.5902C7.39987 11.5902 6.85609 11.081 6.84248 10.4478C6.84235 10.4559 6.8418 10.464 6.8418 10.4721C6.8418 11.1165 7.39121 11.6388 8.06908 11.6388C8.77787 11.6388 9.24416 11.1651 9.24416 10.4986C9.24416 10.4933 9.24347 10.4883 9.24347 10.483C9.22822 11.1321 8.76619 11.5902 8.06908 11.5902ZM8.53991 9.89368C8.412 9.77796 8.24988 9.71867 8.06908 9.71867C7.66736 9.71867 7.34161 10.0417 7.34161 10.4235C7.34161 10.4318 7.34258 10.4397 7.34285 10.4478C7.35645 10.0767 7.67588 9.76725 8.06908 9.76725C8.25002 9.76725 8.412 9.82642 8.53991 9.94226V9.94252L8.91567 9.58532C8.90687 9.57749 8.89712 9.57056 8.88805 9.56299L8.54005 9.89394L8.53991 9.89368Z" fill="#1A237E"/>
</g>
<path opacity="0.2" d="M11.8404 9.69458V9.646C11.8404 9.69967 11.7946 9.74317 11.7381 9.74317H9.79492V9.79175H11.7381C11.7946 9.79188 11.8404 9.74839 11.8404 9.69458ZM11.7381 11.5904H9.79492V11.639H11.7381C11.7946 11.639 11.8404 11.5955 11.8404 11.5418V11.4933C11.8404 11.5469 11.7946 11.5904 11.7381 11.5904ZM12.0449 10.6668H9.79492V10.7154H12.0449C12.1014 10.7154 12.1471 10.6719 12.1471 10.6182V10.5696C12.1471 10.6233 12.1014 10.6668 12.0449 10.6668Z" fill="#1A237E"/>
<path d="M13.8458 7.83904L12.1591 7.40778V6.21667C12.1591 6.09756 12.0558 6 11.9295 6H7.07041C6.94415 6 6.84083 6.09756 6.84083 6.21667V7.40308L5.13585 7.99302C5.02594 8.03103 4.97154 8.15471 5.01495 8.26794L6.02269 10.9001V12.7812C6.02269 12.9015 6.12628 13 6.25281 13H12.7471C12.8737 13 12.9773 12.9015 12.9773 12.7812V11.7013L13.9916 8.10286C14.0243 7.98649 13.9588 7.86777 13.8458 7.83904Z" fill="url(#paint0_radial_333_35)"/>
</g>
</g>
<defs>
<radialGradient id="paint0_radial_333_35" cx="0" cy="0" r="1" gradientUnits="userSpaceOnUse" gradientTransform="translate(7.02837 6.56713) scale(8.75238 8.32023)">
<stop stop-color="white" stop-opacity="0.1"/>
<stop offset="1" stop-color="white" stop-opacity="0"/>
</radialGradient>
<clipPath id="clip0_333_35">
<rect width="19" height="24" fill="white"/>
</clipPath>
<clipPath id="clip1_333_35">
<rect width="9" height="7" fill="white" transform="translate(5 6)"/>
</clipPath>
</defs>
</svg>
