<svg width="35" height="35" viewBox="0 0 19 24" fill="none" xmlns="http://www.w3.org/2000/svg">
<path d="M16.2174 2.88104C14.3618 0.959467 11.9299 -0.000527252 9.49796 2.17244e-07C7.06762 0.000527687 4.63676 0.961051 2.78222 2.88104C-0.927405 6.7226 -0.927405 12.9512 2.78222 16.7928L9.49954 23.7492L16.2174 16.7928C19.9275 12.9512 19.9275 6.7226 16.2174 2.88104Z" fill="#8A3AB9"/>
<g clip-path="url(#clip0_312_97)">
<path d="M9.5 15C12.5376 15 15 12.5376 15 9.5C15 6.46243 12.5376 4 9.5 4C6.46243 4 4 6.46243 4 9.5C4 12.5376 6.46243 15 9.5 15Z" fill="url(#paint0_angular_312_97)"/>
<path d="M11.0755 12.9375H7.92451C6.89781 12.9375 6.0625 12.1023 6.0625 11.0755V7.92451C6.0625 6.89773 6.89781 6.0625 7.92451 6.0625H11.0755C12.1023 6.0625 12.9375 6.89773 12.9375 7.92451V11.0756C12.9375 12.1023 12.1023 12.9375 11.0755 12.9375ZM7.92451 6.63545C7.21372 6.63545 6.63545 7.21372 6.63545 7.92451V11.0756C6.63545 11.7864 7.21372 12.3646 7.92451 12.3646H11.0755C11.7863 12.3646 12.3646 11.7864 12.3646 11.0756V7.92451C12.3646 7.21372 11.7863 6.63545 11.0755 6.63545H7.92451Z" fill="#8A3AB9"/>
<path d="M9.5 11.2188C8.55228 11.2188 7.78125 10.4476 7.78125 9.5C7.78125 8.5522 8.55228 7.78125 9.5 7.78125C10.4477 7.78125 11.2188 8.5522 11.2188 9.5C11.2188 10.4476 10.4477 11.2188 9.5 11.2188ZM9.5 8.3542C8.86819 8.3542 8.3542 8.86819 8.3542 9.5C8.3542 10.1319 8.86819 10.6458 9.5 10.6458C10.1318 10.6458 10.6458 10.1319 10.6458 9.5C10.6458 8.86819 10.1319 8.3542 9.5 8.3542Z" fill="#8A3AB9"/>
<path d="M11.3265 8.06798C11.544 8.06798 11.7203 7.89164 11.7203 7.67413C11.7203 7.45661 11.544 7.28027 11.3265 7.28027C11.109 7.28027 10.9326 7.45661 10.9326 7.67413C10.9326 7.89164 11.109 8.06798 11.3265 8.06798Z" fill="white"/>
</g>
<defs>
<radialGradient id="paint0_angular_312_97" cx="0" cy="0" r="1" gradientUnits="userSpaceOnUse" gradientTransform="translate(9.50005 9.50005) rotate(-55) scale(5.50046)">
<stop stop-color="white"/>
<stop offset="1" stop-color="white"/>
</radialGradient>
<clipPath id="clip0_312_97">
<rect width="11" height="11" fill="white" transform="translate(4 4)"/>
</clipPath>
</defs>
</svg>
