<svg width="35" height="35" viewBox="0 0 35 35" fill="none" xmlns="http://www.w3.org/2000/svg">
<g clip-path="url(#clip0_21_61)">
<path d="M27.2962 4.20152C24.5902 1.39922 21.0436 -0.000768909 17.4971 3.16815e-07C13.9528 0.000769543 10.4078 1.40153 7.70328 4.20152C2.29341 9.80379 2.29341 18.8872 7.70328 24.4895L17.4994 34.6342L27.2962 24.4895C32.7068 18.8872 32.7068 9.80379 27.2962 4.20152Z" fill="#8A3AB9"/>
<circle cx="26" cy="4" r="4" fill="#FF0000"/>
<mask id="mask0_21_61" style="mask-type:luminance" maskUnits="userSpaceOnUse" x="9" y="5" width="17" height="17">
<path d="M25.5208 5.83331H9.47913V21.875H25.5208V5.83331Z" fill="white"/>
</mask>
<g mask="url(#mask0_21_61)">
<path d="M17.5 21.875C21.9298 21.875 25.5208 18.284 25.5208 13.8541C25.5208 9.42436 21.9298 5.83331 17.5 5.83331C13.0702 5.83331 9.47913 9.42436 9.47913 13.8541C9.47913 18.284 13.0702 21.875 17.5 21.875Z" fill="url(#paint0_radial_21_61)"/>
<path d="M19.7976 18.8672H15.2024C13.7051 18.8672 12.4869 17.6492 12.4869 16.1518V11.5566C12.4869 10.0592 13.7051 8.84113 15.2024 8.84113H19.7976C21.295 8.84113 22.513 10.0592 22.513 11.5566V16.1519C22.513 17.6492 21.295 18.8672 19.7976 18.8672ZM15.2024 9.67668C14.1658 9.67668 13.3225 10.52 13.3225 11.5566V16.1519C13.3225 17.1885 14.1658 18.0317 15.2024 18.0317H19.7976C20.8341 18.0317 21.6775 17.1885 21.6775 16.1519V11.5566C21.6775 10.52 20.8341 9.67668 19.7976 9.67668H15.2024Z" fill="#8A3AB9"/>
<path d="M17.4999 16.3607C16.1178 16.3607 14.9934 15.2361 14.9934 13.8542C14.9934 12.472 16.1178 11.3477 17.4999 11.3477C18.882 11.3477 20.0065 12.472 20.0065 13.8542C20.0065 15.2361 18.882 16.3607 17.4999 16.3607ZM17.4999 12.1832C16.5785 12.1832 15.829 12.9328 15.829 13.8542C15.829 14.7757 16.5785 15.5251 17.4999 15.5251C18.4213 15.5251 19.1709 14.7757 19.1709 13.8542C19.1709 12.9328 18.4214 12.1832 17.4999 12.1832Z" fill="#8A3AB9"/>
<path d="M20.1635 11.7658C20.4807 11.7658 20.7378 11.5086 20.7378 11.1914C20.7378 10.8742 20.4807 10.6171 20.1635 10.6171C19.8464 10.6171 19.5891 10.8742 19.5891 11.1914C19.5891 11.5086 19.8464 11.7658 20.1635 11.7658Z" fill="white"/>
</g>
</g>
<defs>
<radialGradient id="paint0_radial_21_61" cx="0" cy="0" r="1" gradientUnits="userSpaceOnUse" gradientTransform="translate(17.5 13.8542) rotate(-55) scale(8.0215)">
<stop stop-color="white"/>
<stop offset="1" stop-color="white"/>
</radialGradient>
<clipPath id="clip0_21_61">
<rect width="35" height="35" fill="white"/>
</clipPath>
</defs>
</svg>
