<svg width="35" height="35" viewBox="0 0 19 24" fill="none" xmlns="http://www.w3.org/2000/svg">
<path d="M16.2174 2.88104C14.3618 0.959467 11.9299 -0.000527252 9.49796 2.17244e-07C7.06762 0.000527687 4.63676 0.961051 2.78222 2.88104C-0.927405 6.7226 -0.927405 12.9512 2.78222 16.7928L9.49954 23.7492L16.2174 16.7928C19.9275 12.9512 19.9275 6.7226 16.2174 2.88104Z" fill="#0077B5"/>
<path d="M15 9.5C15 12.5376 12.5376 15 9.5 15C6.46243 15 4 12.5376 4 9.5C4 6.46243 6.46243 4 9.5 4C12.5376 4 15 6.46243 15 9.5Z" fill="white"/>
<path d="M8.34263 7.99316H7.09863V11.9932H8.34263V7.99316Z" fill="#0077B5"/>
<path d="M7.72053 7.44702C7.32213 7.44702 7 7.12395 7 6.72622C7 6.32808 7.32227 6.00488 7.72067 6.00488C8.11827 6.00488 8.44133 6.32795 8.44133 6.72622C8.4412 7.12395 8.118 7.44702 7.72053 7.44702Z" fill="#0077B5"/>
<path d="M12.8777 12.0999H11.6349V10.1544C11.6349 9.6904 11.6269 9.0936 10.9887 9.0936C10.3416 9.0936 10.2428 9.59933 10.2428 10.1211V12.0999H9V8.0992H10.1927V8.64627H10.2096C10.3756 8.3316 10.7813 8 11.3861 8C12.6453 8 12.8777 8.8284 12.8777 9.9056V12.0999Z" fill="#0077B5"/>
</svg>
