<svg width="35" height="35" viewBox="0 0 35 35" fill="none" xmlns="http://www.w3.org/2000/svg">
<g clip-path="url(#clip0_21_52)">
<path d="M27.2962 4.20152C24.5902 1.39922 21.0436 -0.000768909 17.4971 3.16815e-07C13.9528 0.000769543 10.4078 1.40153 7.70328 4.20152C2.29341 9.80379 2.29341 18.8872 7.70328 24.4895L17.4994 34.6342L27.2962 24.4895C32.7068 18.8872 32.7068 9.80379 27.2962 4.20152Z" fill="#0077B5"/>
<path d="M25.5208 13.8541C25.5208 18.284 21.9298 21.875 17.5 21.875C13.0702 21.875 9.47913 18.284 9.47913 13.8541C9.47913 9.42436 13.0702 5.83331 17.5 5.83331C21.9298 5.83331 25.5208 9.42436 25.5208 13.8541Z" fill="white"/>
<path d="M15.8122 11.6567H13.998V17.4901H15.8122V11.6567Z" fill="#0077B5"/>
<path d="M14.9049 10.8603C14.3239 10.8603 13.8541 10.3891 13.8541 9.8091C13.8541 9.22847 14.3241 8.75714 14.9051 8.75714C15.4849 8.75714 15.9561 9.22829 15.9561 9.8091C15.9559 10.3891 15.4845 10.8603 14.9049 10.8603Z" fill="#0077B5"/>
<path d="M22.4259 17.6457H20.6134V14.8085C20.6134 14.1319 20.6018 13.2615 19.6711 13.2615C18.7274 13.2615 18.5833 13.999 18.5833 14.76V17.6457H16.7709V11.8114H18.5102V12.6092H18.5349C18.777 12.1503 19.3686 11.6667 20.2506 11.6667C22.0869 11.6667 22.4259 12.8748 22.4259 14.4457V17.6457Z" fill="#0077B5"/>
<circle cx="26" cy="4" r="4" fill="#FF0000"/>
</g>
<defs>
<clipPath id="clip0_21_52">
<rect width="35" height="35" fill="white"/>
</clipPath>
</defs>
</svg>
