<svg width="35" height="35" viewBox="0 0 35 35" fill="none" xmlns="http://www.w3.org/2000/svg">
<g clip-path="url(#clip0_21_74)">
<path d="M27.2962 4.20152C24.5902 1.39922 21.0436 -0.000768909 17.4971 3.16815e-07C13.9528 0.000769543 10.4078 1.40153 7.70328 4.20152C2.29341 9.80379 2.29341 18.8872 7.70328 24.4895L17.4994 34.6342L27.2962 24.4895C32.7068 18.8872 32.7068 9.80379 27.2962 4.20152Z" fill="#2C7BE5"/>
<circle cx="26" cy="4" r="4" fill="#FF0000"/>
<path d="M25.5208 13.8542C25.5208 18.284 21.9298 21.875 17.5 21.875C13.0702 21.875 9.47913 18.284 9.47913 13.8542C9.47913 9.42437 13.0702 5.83333 17.5 5.83333C21.9298 5.83333 25.5208 9.42437 25.5208 13.8542Z" fill="white"/>
</g>
<defs>
<clipPath id="clip0_21_74">
<rect width="35" height="35" fill="white"/>
</clipPath>
</defs>
</svg>
