<svg width="35" height="35" viewBox="0 0 19 24" fill="none" xmlns="http://www.w3.org/2000/svg">
<path d="M16.2174 2.88104C14.3618 0.959467 11.9299 -0.000527252 9.49796 2.17244e-07C7.06762 0.000527687 4.63676 0.961051 2.78222 2.88104C-0.927405 6.7226 -0.927405 12.9512 2.78222 16.7928L9.49954 23.7492L16.2174 16.7928C19.9275 12.9512 19.9275 6.7226 16.2174 2.88104Z" fill="black"/>
<path d="M9.5 15C12.5376 15 15 12.5376 15 9.5C15 6.46243 12.5376 4 9.5 4C6.46243 4 4 6.46243 4 9.5C4 12.5376 6.46243 15 9.5 15Z" fill="white"/>
<path d="M6.11227 6.31348L8.74121 9.82855L6.0957 12.6865H6.69115L9.00733 10.1843L10.8787 12.6865H12.9049L10.1279 8.97372L12.5904 6.31348H11.995L9.86193 8.61789L8.13845 6.31348H6.11227ZM6.9879 6.75203H7.91871L12.0291 12.2479H11.0983L6.9879 6.75203Z" fill="black"/>
</svg>
