<svg width="35" height="35" viewBox="0 0 35 35" fill="none" xmlns="http://www.w3.org/2000/svg">
<g clip-path="url(#clip0_15_318)">
<path d="M27.2962 4.20152C24.5902 1.39922 21.0436 -0.000768909 17.4971 3.16815e-07C13.9528 0.000769543 10.4078 1.40153 7.70328 4.20152C2.29341 9.80379 2.29341 18.8872 7.70328 24.4895L17.4994 34.6342L27.2962 24.4895C32.7068 18.8872 32.7068 9.80379 27.2962 4.20152Z" fill="black"/>
<path d="M17.5 21.875C21.9298 21.875 25.5208 18.284 25.5208 13.8541C25.5208 9.42436 21.9298 5.83331 17.5 5.83331C13.0702 5.83331 9.47913 9.42436 9.47913 13.8541C9.47913 18.284 13.0702 21.875 17.5 21.875Z" fill="white"/>
<path d="M12.5596 9.20715L16.3934 14.3333L12.5354 18.5011H13.4038L16.7815 14.8521L19.5106 18.5011H22.4655L18.4157 13.0867L22.0068 9.20715H21.1385L18.0278 12.5678L15.5144 9.20715H12.5596ZM13.8365 9.84671H15.194L21.1883 17.8615H19.8309L13.8365 9.84671Z" fill="black"/>
<circle cx="26" cy="4" r="4" fill="#FF0000"/>
</g>
<defs>
<clipPath id="clip0_15_318">
<rect width="35" height="35" fill="white"/>
</clipPath>
</defs>
</svg>
