<svg xmlns="http://www.w3.org/2000/svg" width="111" height="28" viewBox="0 0 111 28" fill="none"><g clip-path="url(#clip0_2223_15597)"><mask id="mask0_2223_15597" style="mask-type:luminance" maskUnits="userSpaceOnUse" x="0" y="0" width="111" height="28"><path d="M110.028 0.189209H0.462891V27.8108H110.028V0.189209Z" fill="white"></path></mask><g mask="url(#mask0_2223_15597)"><mask id="mask1_2223_15597" style="mask-type:luminance" maskUnits="userSpaceOnUse" x="0" y="0" width="110" height="28"><path d="M109.449 0.189209H0.462891V27.8108H109.449V0.189209Z" fill="white"></path></mask><g mask="url(#mask1_2223_15597)"><mask id="mask2_2223_15597" style="mask-type:luminance" maskUnits="userSpaceOnUse" x="0" y="0" width="110" height="28"><path d="M109.35 0.542236H0.518555V27.65H109.35V0.542236Z" fill="white"></path></mask><g mask="url(#mask2_2223_15597)"><path fill-rule="evenodd" clip-rule="evenodd" d="M57.672 7.52111C58.79 8.67063 59.3958 10.1736 59.4864 12.0279C59.5164 12.7326 59.5312 13.3464 59.5312 13.8672C59.5312 14.5569 59.5164 15.3157 59.4864 16.1439C59.3958 17.9832 58.79 19.4784 57.672 20.6267C56.5517 21.7767 54.9338 22.3527 52.8174 22.3527C50.701 22.3527 49.083 21.7767 47.9638 20.6267C46.8447 19.4784 46.2401 17.9832 46.1496 16.1439C46.1183 15.3157 46.1035 14.5569 46.1035 13.8672C46.1035 13.3464 46.1183 12.7326 46.1496 12.0279C46.2401 10.1886 46.8447 8.68974 47.9638 7.53248C49.083 6.37522 50.701 5.79639 52.8174 5.79639C54.9338 5.79639 56.5517 6.37156 57.672 7.52111ZM50.267 9.58989C49.6227 10.2036 49.2721 11.0546 49.2112 12.1428C49.1812 12.9093 49.1663 13.5532 49.1663 14.0739C49.1663 14.6109 49.1812 15.2628 49.2112 16.0293C49.2721 17.1171 49.6227 17.9645 50.267 18.5693C50.9085 19.1758 51.7592 19.4784 52.8174 19.4784C53.8755 19.4784 54.7262 19.1758 55.3689 18.5693C56.012 17.9645 56.3626 17.1171 56.4235 16.0293C56.4548 15.6459 56.4696 14.9944 56.4696 14.0739C56.4696 13.1701 56.4548 12.5259 56.4235 12.1428C56.3626 11.0546 56.012 10.2036 55.3689 9.58989C54.7262 8.97731 53.8755 8.67063 52.8174 8.67063C51.7592 8.67063 50.9085 8.97731 50.267 9.58989Z" fill="#090E35"></path><path fill-rule="evenodd" clip-rule="evenodd" d="M84.458 14.0742C84.458 14.8256 84.4419 15.3927 84.4113 15.7761C84.291 17.7844 83.678 19.3438 82.5747 20.4555C81.4706 21.5661 79.8601 22.1222 77.7439 22.1222H72.525C72.3582 22.1222 72.2152 22.0616 72.0934 21.9382C71.9728 21.8159 71.9131 21.6697 71.9131 21.5019V6.64761C71.9131 6.47863 71.9728 6.33362 72.0934 6.21014C72.2152 6.08786 72.3582 6.02612 72.525 6.02612H77.6297C79.7919 6.02612 81.4323 6.58221 82.551 7.69398C83.6711 8.80576 84.291 10.3651 84.4113 12.3734C84.4419 12.7556 84.458 13.3239 84.458 14.0742ZM74.9747 8.90036V19.2479H77.6297C78.8242 19.2479 79.7283 18.9339 80.3405 18.3047C80.9535 17.6771 81.2891 16.8339 81.3504 15.7761C81.3802 15.3927 81.3948 14.8256 81.3948 14.0742C81.3948 13.3239 81.3802 12.7556 81.3504 12.3734C81.2891 11.3156 80.945 10.4724 80.3175 9.84318C79.69 9.21563 78.756 8.90036 77.5163 8.90036H74.9747Z" fill="#090E35"></path><path fill-rule="evenodd" clip-rule="evenodd" d="M15.8736 21.3404L10.3177 6.80903C10.2268 6.53282 10.1174 6.33377 9.9891 6.20988C9.85969 6.08762 9.68224 6.02588 9.45583 6.02588H6.96116C6.73357 6.02588 6.55567 6.08762 6.42785 6.20988C6.29843 6.33377 6.18904 6.53282 6.09808 6.80903L0.542195 21.3404L0.518555 21.5017C0.518555 21.6694 0.579459 21.8157 0.700064 21.9379C0.821873 22.0614 0.964917 22.122 1.1316 22.122H2.76439C3.21837 22.122 3.51287 21.9302 3.6495 21.5472L8.20847 9.56712L12.7675 21.5472C12.9029 21.9302 13.1974 22.122 13.6514 22.122H15.2842C15.4509 22.122 15.5951 22.0614 15.7157 21.9379C15.8363 21.8157 15.8972 21.6694 15.8972 21.5017L15.8736 21.3404Z" fill="#090E35"></path><path fill-rule="evenodd" clip-rule="evenodd" d="M29.7638 6.64761V16.0747C29.7638 18.0062 29.204 19.5351 28.0849 20.6623C26.9658 21.7891 25.3554 22.3529 23.2539 22.3529C21.1363 22.3529 19.5259 21.7932 18.4228 20.6737C17.3185 19.5542 16.7676 18.0212 16.7676 16.0747V6.64761C16.7676 6.47863 16.8273 6.33362 16.9479 6.21014C17.0697 6.08786 17.2127 6.02612 17.3795 6.02612H19.2174C19.3828 6.02612 19.5259 6.08786 19.6477 6.21014C19.7683 6.33362 19.8292 6.47863 19.8292 6.64761V15.9601C19.8292 17.1702 20.1313 18.0602 20.7355 18.6277C21.3414 19.1947 22.1808 19.4786 23.2539 19.4786C24.3273 19.4786 25.1739 19.1947 25.7946 18.6277C26.4136 18.0602 26.7246 17.1702 26.7246 15.9601V6.64761C26.7246 6.47863 26.7843 6.33362 26.9061 6.21014C27.0267 6.08786 27.1698 6.02612 27.3364 6.02612H29.1507C29.3174 6.02612 29.4617 6.08786 29.5823 6.21014C29.7029 6.33362 29.7638 6.47863 29.7638 6.64761Z" fill="#090E35"></path><path fill-rule="evenodd" clip-rule="evenodd" d="M44.8183 6.21014C44.9389 6.33362 44.9998 6.47863 44.9998 6.64761V8.2801C44.9998 8.44913 44.9389 8.59414 44.8183 8.7176C44.6977 8.8399 44.5534 8.90036 44.3879 8.90036H40.3042V21.5019C40.3042 21.6709 40.2444 21.8159 40.1227 21.9382C40.0021 22.0616 39.859 22.1222 39.6923 22.1222H37.8556C37.6893 22.1222 37.5447 22.0616 37.4241 21.9382C37.3034 21.8159 37.2426 21.6709 37.2426 21.5019V8.90036H33.16C32.9936 8.90036 32.8506 8.8399 32.73 8.7176C32.6078 8.59414 32.5469 8.44913 32.5469 8.2801V6.64761C32.5469 6.47863 32.6078 6.33362 32.73 6.21014C32.8506 6.08786 32.9936 6.02612 33.16 6.02612H44.3879C44.5534 6.02612 44.6977 6.08786 44.8183 6.21014Z" fill="#090E35"></path><path fill-rule="evenodd" clip-rule="evenodd" d="M98.3399 10.5202C98.2196 10.6348 98.0679 10.6916 97.8863 10.6916H96.298C96.0566 10.6916 95.8681 10.6461 95.731 10.5544C95.5953 10.4622 95.4735 10.3237 95.3693 10.1408C95.1119 9.71108 94.741 9.36543 94.2576 9.10586C93.7741 8.84469 93.3834 8.7151 92.5513 8.7151C91.7353 8.7151 91.1813 8.88405 90.6212 9.22042C90.0634 9.55832 89.7838 10.0096 89.7838 10.5771C89.7838 11.0369 89.9156 11.394 90.1799 11.6458C90.4435 11.8992 90.8565 12.1101 91.4158 12.2787C91.9743 12.4476 92.6225 12.6698 93.8921 12.9456C95.721 13.3442 97.0458 13.9039 97.8625 14.6237C98.6785 15.3447 99.0861 16.333 99.0861 17.5901C99.0861 18.5102 98.821 19.3347 98.2931 20.0623C97.7629 20.7905 97.0036 21.3605 96.0129 21.7752C95.0222 22.1887 93.9963 22.3954 92.6647 22.3954C91.5307 22.3954 90.7408 22.2114 89.7585 21.8435C88.7747 21.4766 87.9817 20.9511 87.3772 20.269C86.7719 19.587 86.447 18.8092 86.401 17.9354C86.3857 17.7514 86.4378 17.6011 86.5596 17.4865C86.6807 17.372 86.8324 17.3139 87.014 17.3139H88.6015C88.8429 17.3139 89.036 17.3606 89.1785 17.4524C89.3233 17.5446 89.4413 17.682 89.5309 17.866C89.7884 18.3717 90.1623 18.7738 90.6534 19.0723C91.1453 19.3726 91.6372 19.5212 92.6647 19.5212C93.663 19.5212 94.361 19.3611 95.0268 19.0386C95.6911 18.7169 96.0244 18.2339 96.0244 17.5901C96.0244 17.2217 95.8965 16.9268 95.639 16.705C95.3816 16.4833 95.0184 16.2992 94.551 16.153C94.0821 16.008 93.5052 15.8199 92.5513 15.5892C92.1751 15.5136 91.8165 15.3979 91.212 15.2451C89.6237 14.8467 88.479 14.3023 87.7748 13.6126C87.0722 12.9217 86.7205 11.9107 86.7205 10.5771C86.7205 9.67287 86.9818 8.86011 87.5028 8.14034C88.0246 7.4189 88.7387 6.85551 89.6466 6.44971C90.553 6.04351 91.4334 5.84082 92.5513 5.84082C93.8224 5.84082 94.6545 6.05895 95.5846 6.49643C96.5148 6.93228 97.2212 7.48064 97.7047 8.14034C98.1881 8.79957 98.4532 9.44216 98.4992 10.0714C98.513 10.2554 98.4609 10.4041 98.3399 10.5202Z" fill="#090E35"></path><path fill-rule="evenodd" clip-rule="evenodd" d="M69.6106 12.9569C69.7324 13.0792 69.7921 13.2243 69.7921 13.3932V15.2564C69.7921 15.4255 69.7324 15.5705 69.6106 15.6927C69.49 15.815 69.347 15.8767 69.1803 15.8767H62.2624C62.0958 15.8767 61.9515 15.815 61.8309 15.6927C61.7103 15.5705 61.6494 15.4255 61.6494 15.2564V13.3932C61.6494 13.2243 61.7103 13.0792 61.8309 12.9569C61.9515 12.8347 62.0958 12.7729 62.2624 12.7729H69.1803C69.347 12.7729 69.49 12.8347 69.6106 12.9569Z" fill="#161C2D"></path><path fill-rule="evenodd" clip-rule="evenodd" d="M56.7073 0.726245C56.8291 0.848511 56.8888 0.993523 56.8888 1.16251V3.02574C56.8888 3.19471 56.8291 3.33973 56.7073 3.462C56.5867 3.58548 56.4436 3.646 56.2769 3.646H49.3591C49.1929 3.646 49.0482 3.58548 48.9276 3.462C48.807 3.33973 48.7461 3.19471 48.7461 3.02574V1.16251C48.7461 0.993523 48.807 0.848511 48.9276 0.726245C49.0482 0.603979 49.1929 0.542236 49.3591 0.542236H56.2769C56.4436 0.542236 56.5867 0.603979 56.7073 0.726245Z" fill="#161C2D"></path><path fill-rule="evenodd" clip-rule="evenodd" d="M109.168 13.1689C109.289 13.2912 109.349 13.4374 109.349 13.6063V15.4683C109.349 15.6374 109.289 15.7836 109.168 15.9058C109.047 16.0281 108.903 16.0898 108.738 16.0898H101.818C101.653 16.0898 101.509 16.0281 101.389 15.9058C101.267 15.7836 101.207 15.6374 101.207 15.4683V13.6063C101.207 13.4374 101.267 13.2912 101.389 13.1689C101.509 13.0466 101.653 12.9849 101.818 12.9849H108.738C108.903 12.9849 109.047 13.0466 109.168 13.1689Z" fill="#161C2D"></path><path fill-rule="evenodd" clip-rule="evenodd" d="M96.6324 24.7304C96.7527 24.8526 96.814 24.9976 96.814 25.1666V27.0286C96.814 27.1976 96.7527 27.3438 96.6324 27.4661C96.5113 27.5884 96.3673 27.6501 96.2018 27.6501H89.2831C89.1176 27.6501 88.9735 27.5884 88.8525 27.4661C88.7307 27.3438 88.6709 27.1976 88.6709 27.0286V25.1666C88.6709 24.9976 88.7307 24.8526 88.8525 24.7304C88.9735 24.6068 89.1176 24.5464 89.2831 24.5464H96.2018C96.3673 24.5464 96.5113 24.6068 96.6324 24.7304Z" fill="#161C2D"></path><path fill-rule="evenodd" clip-rule="evenodd" d="M27.1546 24.7304C27.2764 24.8526 27.3361 24.9976 27.3361 25.1666V27.0286C27.3361 27.1976 27.2764 27.3438 27.1546 27.4661C27.034 27.5884 26.8909 27.6501 26.7242 27.6501H19.8064C19.6397 27.6501 19.4955 27.5884 19.3749 27.4661C19.2543 27.3438 19.1934 27.1976 19.1934 27.0286V25.1666C19.1934 24.9976 19.2543 24.8526 19.3749 24.7304C19.4955 24.6068 19.6397 24.5464 19.8064 24.5464H26.7242C26.8909 24.5464 27.034 24.6068 27.1546 24.7304Z" fill="#161C2D"></path><path fill-rule="evenodd" clip-rule="evenodd" d="M32.1741 11.5402C32.2959 11.6637 32.3556 11.8087 32.3556 11.9777V13.8397C32.3556 14.0087 32.2959 14.1549 32.1741 14.2772C32.0535 14.3995 31.9093 14.4612 31.7438 14.4612H24.8248C24.6593 14.4612 24.515 14.3995 24.3944 14.2772C24.2738 14.1549 24.2129 14.0087 24.2129 13.8397V11.9777C24.2129 11.8087 24.2738 11.6637 24.3944 11.5402C24.515 11.418 24.6593 11.3574 24.8248 11.3574H31.7438C31.9093 11.3574 32.0535 11.418 32.1741 11.5402Z" fill="#161C2D"></path><path fill-rule="evenodd" clip-rule="evenodd" d="M40.3038 14.5366V21.5509C40.3038 21.7186 40.2441 21.8648 40.1223 21.9872C40.0017 22.1106 39.8587 22.1711 39.6919 22.1711H37.8552C37.6886 22.1711 37.5443 22.1106 37.4237 21.9872C37.3031 21.8648 37.2422 21.7186 37.2422 21.5509V14.5366H40.3038Z" fill="#161C2D"></path><path fill-rule="evenodd" clip-rule="evenodd" d="M74.3617 6.02588H73.3596H72.525C72.3582 6.02588 72.2152 6.0864 72.0934 6.20988C71.9728 6.33216 71.9131 6.47838 71.9131 6.64614V13.6604H74.9747V7.79447V6.64614V6.02588H74.3617Z" fill="#161C2D"></path><path fill-rule="evenodd" clip-rule="evenodd" d="M12.0979 14.6225C12.2185 14.7448 12.2783 14.891 12.2783 15.06V16.6937C12.2783 16.8627 12.2185 17.009 12.0979 17.1312C11.9773 17.2535 11.8331 17.3152 11.6664 17.3152H4.74857C4.58349 17.3152 4.43884 17.2535 4.31823 17.1312C4.19642 17.009 4.13672 16.8627 4.13672 16.6937V15.06C4.13672 14.891 4.19642 14.7448 4.31823 14.6225C4.43884 14.5002 4.58349 14.4385 4.74857 14.4385H11.6664C11.8331 14.4385 11.9773 14.5002 12.0979 14.6225Z" fill="#161C2D"></path></g></g></g></g><defs><clipPath id="clip0_2223_15597"><rect width="109.565" height="27.6215" fill="white" transform="translate(0.462891 0.189209)"></rect></clipPath></defs></svg>