<svg xmlns="http://www.w3.org/2000/svg" width="97" height="48" viewBox="0 0 97 48" fill="none"><g clip-path="url(#clip0_2299_8961)"><path d="M42.0535 19.8352C42.1022 19.712 42.1516 19.5155 42.1516 19.3927C42.1516 18.7294 41.6358 18.4098 41.0953 18.4098C40.6285 18.4098 40.3335 18.631 40.1613 19.1472L37.9993 25.7569L35.5175 19.0978C35.37 18.6804 35.1001 18.4098 34.5836 18.4098C34.0678 18.4098 33.7975 18.68 33.6504 19.0978L31.193 25.7569L29.0309 19.1472C28.8587 18.6313 28.5638 18.4098 28.097 18.4098C27.5565 18.4098 27.0406 18.7294 27.0406 19.3927C27.0406 19.5155 27.0893 19.712 27.1387 19.8352L30.161 28.8035C30.2594 29.1966 30.5784 29.4672 31.1193 29.4672C31.6598 29.4672 31.9547 29.1722 32.1022 28.7788L34.5836 21.9726L37.09 28.7788C37.2375 29.1962 37.5568 29.4672 38.073 29.4672C38.5892 29.4672 38.8838 29.2216 39.0313 28.8035L42.0535 19.8352ZM19.5224 27.4164L15.9467 23.8623L19.5224 20.3086C19.9739 19.8564 20.0093 19.1614 19.5224 18.6752C19.0358 18.1886 18.3408 18.223 17.8893 18.6752L13.5387 23.0258C13.4284 23.135 13.3413 23.2654 13.2828 23.4092C13.2243 23.5529 13.1955 23.7071 13.1982 23.8623C13.1955 24.0175 13.2243 24.1716 13.2828 24.3154C13.3413 24.4592 13.4284 24.5896 13.5387 24.6988L17.8893 29.0491C18.3408 29.5012 19.0358 29.536 19.5224 29.0491C20.0086 28.5632 19.9739 27.8682 19.5224 27.4164ZM12.6504 28.2292V19.4814C12.6504 18.8428 12.1593 18.3266 11.4956 18.3266C10.8319 18.3266 10.3408 18.8428 10.3408 19.4814V28.2292C10.3408 28.8675 10.8073 29.3837 11.4956 29.3837C12.1836 29.3837 12.6504 28.8675 12.6504 28.2289V28.2292ZM22.426 19.5649V28.3117C22.426 28.9506 22.8932 29.4672 23.5808 29.4672C24.2695 29.4672 24.7363 28.9506 24.7363 28.3117V19.5649C24.7363 18.9259 24.2445 18.4101 23.5812 18.4101C22.9179 18.4101 22.426 18.9259 22.426 19.5649ZM44.4956 19.5649V28.3117C44.4956 28.9506 44.9624 29.4672 45.6504 29.4672C46.3384 29.4672 46.8052 28.9506 46.8052 28.3117V19.5649C46.8052 18.9259 46.3137 18.4101 45.6504 18.4101C44.9871 18.4101 44.4956 18.9259 44.4956 19.5649ZM44.4956 19.5649V28.3117C44.4956 28.9506 44.9624 29.4672 45.6504 29.4672C46.3384 29.4672 46.8052 28.9506 46.8052 28.3117V19.5649C46.8052 18.9259 46.3137 18.4101 45.6504 18.4101C44.9871 18.4101 44.4956 18.9259 44.4956 19.5649ZM44.4956 19.5649V28.3117C44.4956 28.9506 44.9624 29.4672 45.6504 29.4672C46.3384 29.4672 46.8052 28.9506 46.8052 28.3117V19.5649C46.8052 18.9259 46.3137 18.4101 45.6504 18.4101C44.9871 18.4101 44.4956 18.9259 44.4956 19.5649ZM67.8695 20.4206C68.9043 20.4206 69.5078 20.8157 70.0855 21.256C70.3161 21.4153 70.5419 21.4926 70.7749 21.4926C71.3356 21.4926 71.7589 21.0626 71.7589 20.4929C71.7589 20.2272 71.6511 19.9899 71.4295 19.768C70.6052 18.9148 69.2744 18.4056 67.8695 18.4056C64.6834 18.4056 62.4577 20.663 62.4577 23.895C62.4577 27.1273 64.6831 29.3847 67.8699 29.3847C69.2744 29.3847 70.6031 28.8772 71.4236 28.0279C71.649 27.8018 71.7589 27.5632 71.7589 27.2974C71.7589 26.7277 71.3356 26.2978 70.7746 26.2978C70.5412 26.2978 70.3106 26.3788 70.0688 26.5461C69.5231 26.9628 68.9036 27.3698 67.8695 27.3698C65.961 27.3698 64.6278 25.9409 64.6278 23.895C64.6278 21.8491 65.961 20.4206 67.8695 20.4206ZM78.6222 18.4056C75.5196 18.4056 73.1794 20.7656 73.1794 23.895C73.1794 27.0247 75.5193 29.3847 78.6222 29.3847C81.7248 29.3847 84.0646 27.0247 84.0646 23.895C84.0646 20.7656 81.7252 18.4056 78.6222 18.4056ZM78.6222 27.424C76.4692 27.424 75.3429 25.6487 75.3429 23.895C75.3429 21.5785 76.9926 20.3663 78.6222 20.3663C80.7759 20.3663 81.9029 22.1416 81.9029 23.895C81.9029 26.2119 80.2525 27.424 78.6222 27.424ZM95.8142 18.4675C95.4142 18.4675 95.0629 18.7044 94.874 19.1006L91.5102 26.144L91.4806 26.0821L88.1092 19.0866C87.8765 18.6644 87.5753 18.4675 87.1606 18.4675C87.0269 18.4661 86.8942 18.4914 86.7704 18.5419C86.6465 18.5924 86.534 18.6672 86.4395 18.7618C86.3449 18.8564 86.2703 18.969 86.2198 19.0928C86.1693 19.2167 86.1441 19.3494 86.1457 19.4832V28.2915C86.1457 28.8505 86.6104 29.3225 87.1606 29.3225C87.7193 29.3225 88.1913 28.8505 88.1913 28.2915V23.6112L90.6191 28.7562C90.8132 29.1423 91.0966 29.3225 91.5109 29.3225C91.9057 29.3225 92.2312 29.1141 92.4045 28.751L94.7989 23.6122V28.3075C94.7989 28.8672 95.2546 29.3225 95.8142 29.3225C96.3919 29.3225 96.8445 28.8766 96.8445 28.3075V19.4985C96.8445 18.8821 96.4306 18.4675 95.8142 18.4675Z" fill="#161C2D"></path><path d="M52.3101 34.0438C52.0132 33.8234 51.6531 33.7047 51.2834 33.7053C51.0121 33.7058 50.7447 33.7697 50.5025 33.892C50.2603 34.0142 50.0501 34.1914 49.8886 34.4093C47.7167 37.3519 44.6503 39.8191 41.0204 41.5436C37.2461 43.3384 32.932 44.2862 28.532 44.2862C21.8187 44.2862 15.5223 42.1272 10.8034 38.2062C8.53796 36.3265 6.76335 34.1443 5.52857 31.7206C4.26492 29.2389 3.62388 26.6062 3.62318 23.8959C3.62388 21.1857 4.26492 18.5526 5.52857 16.0702C7.38701 12.4212 10.4851 9.30567 14.4882 7.0608C18.6367 4.73385 23.4955 3.50394 28.5411 3.50394C32.9404 3.50394 37.2649 4.45698 41.0475 6.26011C44.6851 7.99367 47.7533 10.4712 49.9206 13.4253C50.082 13.6443 50.2925 13.8223 50.5353 13.9451C50.778 14.0679 51.0461 14.1321 51.3181 14.1325C51.6864 14.1331 52.0451 14.0154 52.3414 13.7968C52.7112 13.5246 52.958 13.1169 53.0275 12.6631C53.0971 12.2093 52.9838 11.7464 52.7126 11.3759C50.2061 7.96202 46.6882 5.11159 42.538 3.13315C38.2931 1.10985 33.4531 0.040631 28.5418 0.0402832C21.0211 0.0416745 13.9359 2.48481 8.59048 6.91924C5.96092 9.10254 3.8924 11.6521 2.44231 14.498C0.926832 17.4702 0.158485 20.6319 0.15918 23.8956C0.158485 27.1592 0.926832 30.3206 2.44231 33.2928C4.61553 37.5547 8.19535 41.1711 12.794 43.7505C17.459 46.3665 22.9042 47.7499 28.5411 47.7502C33.4395 47.7502 38.2691 46.6859 42.5074 44.6719C46.6496 42.7025 50.1654 39.865 52.6754 36.466C52.9476 36.0961 53.062 35.6334 52.9936 35.1792C52.9251 34.7251 52.6793 34.317 52.3101 34.0438Z" fill="#161C2D"></path><path d="M55.081 21.9878C54.5753 21.9884 54.0905 22.1896 53.733 22.5472C53.3755 22.9048 53.1744 23.3896 53.1738 23.8953C53.1744 24.4009 53.3755 24.8857 53.733 25.2433C54.0905 25.6009 54.5753 25.8021 55.081 25.8027C55.5866 25.8021 56.0714 25.6009 56.4289 25.2433C56.7864 24.8857 56.9875 24.4009 56.9881 23.8953C56.9875 23.3896 56.7864 22.9048 56.4289 22.5472C56.0714 22.1896 55.5866 21.9884 55.081 21.9878Z" fill="#161C2D"></path></g><defs><clipPath id="clip0_2299_8961"><rect width="96.6956" height="48" fill="white" transform="translate(0.158203)"></rect></clipPath></defs></svg>