<svg xmlns="http://www.w3.org/2000/svg" width="102" height="36" viewBox="0 0 102 36" fill="none"><g clip-path="url(#clip0_2223_15572)"><path d="M13.936 35.2637C8.39869 35.2637 3.25222 31.9413 0.906994 26.9251C0.516123 26.0782 0.906994 25.101 1.75388 24.645C2.60077 24.2541 3.57795 24.645 4.03396 25.4919C5.79288 29.3354 9.70159 31.8761 14.0012 31.8761C20.0597 31.8761 24.9456 26.9251 24.9456 20.9317C24.9456 19.1728 24.2941 17.2836 23.2518 16.111C22.6655 15.3944 22.7306 14.3521 23.4472 13.7006C24.1638 13.0492 25.2061 13.1794 25.8576 13.896C27.4211 15.7201 28.3331 18.3259 28.3331 20.9317C28.268 28.8794 21.8186 35.2637 13.936 35.2637Z" fill="#161C2D"></path><path d="M13.8701 28.814C11.59 28.814 9.5054 27.9019 7.61619 26.0779C6.8996 25.4264 6.8996 24.3841 7.55105 23.6675C8.2025 22.9509 9.24482 22.9509 9.96142 23.6023C11.3295 24.9704 12.6975 25.4916 14.1959 25.3613C15.3685 25.2961 16.4759 24.7098 17.2577 23.7978C18.0394 22.8857 18.4303 21.7783 18.3651 20.5405C18.3 18.977 16.9971 17.7393 14.4564 16.4364C13.6095 16.0455 13.2838 15.0032 13.6747 14.1563C14.0656 13.3094 15.1079 12.9837 15.9548 13.3746C17.388 14.026 21.4921 16.0455 21.8178 20.2799C22.0133 24.6447 18.6909 28.4231 14.3913 28.7488C14.1959 28.814 14.0004 28.814 13.8701 28.814Z" fill="#161C2D"></path><path d="M4.61769 22.6253C4.22682 22.6253 3.77081 22.4951 3.51023 22.2345C1.8816 20.7361 0.708984 17.7395 0.708984 15.0685C0.708984 7.18594 7.15836 0.736572 15.0409 0.736572C20.6434 0.736572 25.7899 4.05898 28.1351 9.07515C28.526 9.92204 28.1351 10.8992 27.2882 11.3552C26.4413 11.7461 25.4641 11.3552 25.0081 10.5083C23.2492 6.66478 19.3405 4.12412 15.0409 4.12412C8.98242 4.12412 4.09653 9.01001 4.09653 15.0685C4.09653 16.7623 4.87827 18.7818 5.79031 19.6938C6.5069 20.3453 6.5069 21.3876 5.85545 22.1042C5.52973 22.4951 5.13886 22.6253 4.61769 22.6253Z" fill="#161C2D"></path><path d="M13.8684 22.8207C13.673 22.8207 13.3473 22.7556 13.1518 22.6904C8.3311 20.3452 7.22363 17.3485 7.22363 15.1987C7.22363 13.1141 8.00537 11.0946 9.50371 9.66139C11.0021 8.16305 12.9564 7.31616 15.0411 7.31616C17.4514 7.31616 19.4058 8.16305 21.295 9.98711C21.9464 10.6386 22.0116 11.6809 21.295 12.3975C20.6435 13.0489 19.6012 13.1141 18.8846 12.3975C17.6469 11.1597 16.5394 10.5734 15.0411 10.5734C13.8684 10.5734 12.6958 11.0946 11.8489 11.9415C11.0021 12.7884 10.4809 13.8958 10.4809 15.1336C10.4809 16.8925 11.8489 18.3908 14.3896 19.6286C15.2365 20.0195 15.5622 21.0618 15.1713 21.9087C15.1062 22.495 14.5199 22.8207 13.8684 22.8207Z" fill="#161C2D"></path><path d="M100.119 8.8147C99.272 8.8147 98.5554 9.53129 98.5554 10.3782V21.9089H98.4251L89.9562 9.59644C89.6305 9.07528 89.0442 8.8147 88.4579 8.8147C87.4807 8.8147 86.6338 9.66158 86.6338 10.6388V25.7524C86.6338 26.5993 87.3504 27.3159 88.1973 27.3159C89.0442 27.3159 89.7608 26.5993 89.7608 25.7524V14.2217H89.891L98.4251 26.469C98.7508 26.9902 99.3371 27.2508 99.9234 27.2508C100.901 27.2508 101.747 26.4039 101.747 25.4267V10.3782C101.617 9.53129 100.966 8.8147 100.119 8.8147Z" fill="#161C2D"></path><path d="M65.3316 11.8765C66.1785 11.8765 66.8951 11.1599 66.8951 10.313C66.8951 9.46611 66.1785 8.74951 65.3316 8.74951H57.1885H55.625C54.7781 8.74951 54.0615 9.46611 54.0615 10.313V11.8765V16.3715V19.3682V24.1889V25.7524C54.0615 26.5993 54.7781 27.3159 55.625 27.3159H57.1885H65.3968C66.2437 27.3159 66.9603 26.5993 66.9603 25.7524C66.9603 24.9055 66.2437 24.1889 65.3968 24.1889H57.1885V19.3682H64.0287C64.8756 19.3682 65.5922 18.6516 65.5922 17.8047C65.5922 16.9578 64.8756 16.2412 64.0287 16.2412H57.1885V11.7462H65.3316V11.8765Z" fill="#161C2D"></path><path d="M49.3062 13.8958C48.6547 13.8958 48.1987 13.5701 47.873 12.9838C47.6775 12.6581 47.4821 12.2672 47.0261 12.0718C46.3746 11.6809 45.5277 11.4203 44.5506 11.4203C43.834 11.4203 43.1825 11.5506 42.7265 11.746C42.2053 11.9415 41.8145 12.2672 41.5539 12.5929C41.2933 12.9186 41.163 13.3747 41.163 13.8307C41.163 14.2215 41.2282 14.6124 41.4236 14.873C41.619 15.1336 41.8145 15.4593 42.2053 15.5896C42.4659 15.785 42.8568 15.9153 43.2477 16.1108C43.5734 16.241 44.0294 16.3713 44.3551 16.4365L46.114 16.8274C46.8306 16.9576 47.4821 17.1531 48.0684 17.4788C48.7199 17.7394 49.241 18.1303 49.8273 18.5211C50.3485 18.912 50.7394 19.4332 50.9999 20.0846C51.2605 20.6709 51.5211 21.3224 51.5211 22.1693C51.5211 23.2116 51.2605 24.1888 50.6742 24.9705C50.0879 25.8174 49.3062 26.4688 48.2638 26.8597C47.2215 27.3809 45.9186 27.5763 44.4854 27.5763C43.0522 27.5763 41.8145 27.3809 40.7721 26.9249C39.7298 26.534 38.8829 25.8825 38.2966 25.0356C38.1012 24.7751 37.9058 24.3842 37.7103 24.0585C37.3195 23.0813 38.0361 21.9738 39.1435 21.9738H39.2738C39.9253 21.9738 40.4464 22.3647 40.707 22.951C40.7721 23.1464 40.9024 23.3419 41.0327 23.6024C41.3585 23.9933 41.8796 24.3842 42.4659 24.5796C43.0522 24.7751 43.6385 24.8402 44.3551 24.8402C45.1369 24.8402 45.7883 24.7099 46.3095 24.5145C46.8958 24.319 47.2867 23.9282 47.6775 23.6024C48.0033 23.2116 48.1987 22.7556 48.1987 22.1693C48.1987 21.6481 48.0684 21.2572 47.8078 20.9966C47.5472 20.6709 47.0912 20.4103 46.6352 20.2149C46.1141 20.0195 45.5929 19.824 44.8763 19.6286L42.7916 19.0423C41.2282 18.6514 40.0556 18.0651 39.2087 17.2834C38.3618 16.5016 38.1012 15.1987 38.1012 13.8958C38.1012 12.8535 38.3618 11.8763 38.9481 11.0946C39.5344 10.2477 40.3813 9.59624 41.3585 9.20537C42.3356 8.8145 43.5082 8.48877 44.8111 8.48877C46.0489 8.48877 47.2867 8.68421 48.2638 9.20537C49.241 9.59624 50.0228 10.2477 50.6091 11.0946C50.7394 11.2249 50.8045 11.4203 50.9348 11.6809C51.456 12.6581 50.7394 13.8307 49.5667 13.8307H49.4365V13.8958H49.3062Z" fill="#161C2D"></path><path d="M76.019 11.5509C77.0613 11.5509 77.9733 11.7464 78.8202 12.2675C79.6019 12.7887 80.2534 13.375 80.7094 14.287C81.2306 15.2642 81.426 16.5671 81.426 18.0003C81.426 19.4986 81.2306 20.7364 80.7094 21.7136C80.1883 22.6256 79.6019 23.3422 78.8202 23.7331C78.0385 24.2542 77.1264 24.4497 76.019 24.4497C74.9766 24.4497 74.0646 24.2542 73.2177 23.7331C72.436 23.2119 71.7845 22.6256 71.3285 21.7136C70.8074 20.7364 70.6119 19.4335 70.6119 18.0003C70.6119 16.5019 70.8074 15.2642 71.3285 14.287C71.8497 13.375 72.3708 12.6584 73.2177 12.2675C74.0646 11.7464 74.9766 11.5509 76.019 11.5509ZM76.019 8.61938C74.3903 8.61938 73.0223 8.94511 71.7194 9.72685C70.4816 10.5086 69.4393 11.5509 68.7227 12.9841C68.0061 14.4173 67.6152 16.0459 67.6152 18.1306C67.6152 20.0849 67.941 21.7787 68.7227 23.2119C69.4393 24.6451 70.4816 25.7526 71.7194 26.4692C72.9571 27.2509 74.3903 27.5766 76.019 27.5766C77.6476 27.5766 79.0156 27.2509 80.3185 26.4692C81.5563 25.6874 82.5986 24.6451 83.3152 23.2119C84.0318 21.7787 84.4227 20.1501 84.4227 18.0654C84.4227 16.1111 84.097 14.4173 83.3152 12.919C82.5986 11.4858 81.5563 10.3783 80.3185 9.66171C79.0808 8.94511 77.6476 8.61938 76.019 8.61938Z" fill="#161C2D"></path></g><defs><clipPath id="clip0_2223_15572"><rect width="100.975" height="34.5269" fill="white" transform="translate(0.708984 0.736572)"></rect></clipPath></defs></svg>