<svg xmlns="http://www.w3.org/2000/svg" width="98" height="36" viewBox="0 0 98 36" fill="none"><g clip-path="url(#clip0_2223_15583)"><path d="M97.6559 0.736572H0.980469V35.2635H97.6559V0.736572Z" fill="#161C2D"></path><path d="M18.1082 24.3724L12.2236 14.9734C11.6562 14.0782 11.9294 12.8847 12.8121 12.3306C13.6947 11.7551 14.8717 12.0322 15.4181 12.9273L18.0872 17.2112L20.7563 12.9273C21.3237 12.0322 22.4796 11.7764 23.3623 12.3306C24.245 12.906 24.4972 14.0782 23.9507 14.9734L18.1082 24.3724Z" fill="white"></path><path d="M26.6629 24.3724L20.7783 14.9734C20.2108 14.0782 20.4841 12.8847 21.3667 12.3306C22.2494 11.7551 23.4264 12.0322 23.9728 12.9273L26.6419 17.2112L29.3109 12.9273C29.8784 12.0322 31.0343 11.7764 31.917 12.3306C32.7997 12.906 33.0519 14.0782 32.5054 14.9734L26.6629 24.3724Z" fill="white"></path><path d="M39.0623 11.8831C35.5526 11.8831 32.6943 14.6964 32.6943 18.1704C32.6943 21.6444 35.5526 24.4577 39.0623 24.4577C42.572 24.4577 45.4303 21.6444 45.4303 18.1704C45.4303 14.6964 42.572 11.8831 39.0623 11.8831ZM39.0623 21.1542C37.5912 21.1542 36.3722 19.7902 36.3722 18.1277C36.3722 16.4653 37.5701 15.1013 39.0623 15.1013C40.5545 15.1013 41.7524 16.4653 41.7524 18.1277C41.7524 19.7902 40.5545 21.1542 39.0623 21.1542Z" fill="white"></path><path d="M50.116 24.1169H46.333V16.5082C46.333 14.1211 48.2455 12.1816 50.5993 12.1816H53.3105V15.4851H50.7044C50.4312 15.4851 50.0949 15.8901 50.0949 16.1672V24.1169H50.116Z" fill="white"></path><path d="M57.8921 20.2165V15.4638H59.5524C60.4561 15.4638 61.1706 14.7178 61.1706 13.8227C61.1706 12.9062 60.4351 12.1816 59.5524 12.1816H57.8921V10.5405C57.8921 9.60271 57.1355 8.83545 56.0847 8.83545C55.1179 8.83545 54.3613 9.66665 54.3613 10.6684V20.5149C54.3613 22.5183 55.9586 24.1381 57.9341 24.1381H61.1706V20.8133H58.4805C58.1653 20.8133 57.8921 20.5362 57.8921 20.2165Z" fill="white"></path><path d="M73.6339 19.3642C73.718 18.9806 73.76 18.5756 73.76 18.1494C73.76 14.6967 70.9858 11.8621 67.5812 11.8621C64.1765 11.8621 61.4023 14.6754 61.4023 18.1494C61.4023 21.6234 64.1765 24.4367 67.5812 24.4367C70.2082 24.4367 72.478 22.753 73.3607 20.3872H69.6408C69.1154 21.0053 68.3588 21.3889 67.5391 21.3889C66.3202 21.3889 65.2694 20.5577 64.828 19.3642H73.6339ZM67.5391 14.9311C68.632 14.9311 69.5777 15.5918 70.0611 16.5722H64.9961C65.5005 15.5918 66.4463 14.9311 67.5391 14.9311Z" fill="white"></path><path d="M86.6635 24.1807H83.0067L82.9857 18.1704C82.9857 17.4032 82.6494 15.5489 80.5267 15.5489C78.8244 15.5489 78.1939 16.9982 78.1939 17.8081C78.1939 19.4705 78.1939 24.1807 78.1939 24.1807H74.5791V17.8081C74.5791 15.3997 76.4285 12.011 80.5267 12.011C84.4988 12.011 86.6425 15.1866 86.6425 18.1704V24.1807H86.6635Z" fill="white"></path></g><defs><clipPath id="clip0_2223_15583"><rect width="96.6754" height="34.5269" fill="white" transform="translate(0.980469 0.736572)"></rect></clipPath></defs></svg>